{"asset":{"version":"2.0","generator":"Riser stock asset: animated biped. tools/make-stock-assets.mjs - do not edit by hand."},"scene":0,"scenes":[{"nodes":[0]}],"nodes":[{"name":"Character","children":[1,2,3]},{"name":"Body","mesh":0,"skin":0},{"name":"Skull","mesh":1,"skin":0},{"name":"Root","translation":[0,0,0],"children":[4]},{"name":"Hips","translation":[0,0.94,0],"children":[5,15,18]},{"name":"Spine","translation":[0,0.12,0],"children":[6]},{"name":"Chest","translation":[0,0.24,0],"children":[7,9,12]},{"name":"Neck","translation":[0,0.22,0],"children":[8]},{"name":"Head","translation":[0,0.1,0]},{"name":"UpperArmL","translation":[0.14,0.15,0],"children":[10]},{"name":"LowerArmL","translation":[0.17,-0.25,0],"children":[11]},{"name":"HandL","translation":[0.12,-0.24,0]},{"name":"UpperArmR","translation":[-0.14,0.15,0],"children":[13]},{"name":"LowerArmR","translation":[-0.17,-0.25,0],"children":[14]},{"name":"HandR","translation":[-0.12,-0.24,0]},{"name":"ThighL","translation":[0.1,-0.04,0],"children":[16]},{"name":"CalfL","translation":[0,-0.43,0],"children":[17]},{"name":"FootL","translation":[0,-0.39,0]},{"name":"ThighR","translation":[-0.1,-0.04,0],"children":[19]},{"name":"CalfR","translation":[0,-0.43,0],"children":[20]},{"name":"FootR","translation":[0,-0.39,0]}],"meshes":[{"name":"Body","primitives":[{"attributes":{"POSITION":0,"NORMAL":1,"JOINTS_0":2,"WEIGHTS_0":3},"indices":4,"material":0}]},{"name":"Skull","primitives":[{"attributes":{"POSITION":5,"NORMAL":6,"JOINTS_0":7,"WEIGHTS_0":8},"indices":9,"material":0}]}],"skins":[{"name":"Skel","inverseBindMatrices":10,"skeleton":3,"joints":[3,4,5,6,7,8,9,10,11,12,13,14,15,16,17,18,19,20]}],"animations":[{"name":"Walk","samplers":[{"input":11,"output":12,"interpolation":"LINEAR"},{"input":13,"output":14,"interpolation":"LINEAR"},{"input":15,"output":16,"interpolation":"LINEAR"},{"input":17,"output":18,"interpolation":"LINEAR"},{"input":19,"output":20,"interpolation":"LINEAR"},{"input":21,"output":22,"interpolation":"LINEAR"},{"input":23,"output":24,"interpolation":"LINEAR"},{"input":25,"output":26,"interpolation":"LINEAR"},{"input":27,"output":28,"interpolation":"LINEAR"},{"input":29,"output":30,"interpolation":"LINEAR"}],"channels":[{"sampler":0,"target":{"node":15,"path":"rotation"}},{"sampler":1,"target":{"node":18,"path":"rotation"}},{"sampler":2,"target":{"node":16,"path":"rotation"}},{"sampler":3,"target":{"node":19,"path":"rotation"}},{"sampler":4,"target":{"node":9,"path":"rotation"}},{"sampler":5,"target":{"node":12,"path":"rotation"}},{"sampler":6,"target":{"node":10,"path":"rotation"}},{"sampler":7,"target":{"node":13,"path":"rotation"}},{"sampler":8,"target":{"node":5,"path":"rotation"}},{"sampler":9,"target":{"node":4,"path":"translation"}}]},{"name":"Wave","samplers":[{"input":31,"output":32,"interpolation":"LINEAR"},{"input":33,"output":34,"interpolation":"LINEAR"}],"channels":[{"sampler":0,"target":{"node":9,"path":"rotation"}},{"sampler":1,"target":{"node":10,"path":"rotation"}}]}],"materials":[{"name":"Blockout","pbrMetallicRoughness":{"baseColorFactor":[0.72,0.74,0.76,1],"metallicFactor":0,"roughnessFactor":0.72}}],"accessors":[{"bufferView":0,"componentType":5126,"count":712,"type":"VEC3","min":[-0.495,0,-0.11],"max":[0.495,1.53,0.17]},{"bufferView":1,"componentType":5126,"count":712,"type":"VEC3"},{"bufferView":2,"componentType":5123,"count":712,"type":"VEC4"},{"bufferView":3,"componentType":5126,"count":712,"type":"VEC4"},{"bufferView":4,"componentType":5123,"count":4092,"type":"SCALAR"},{"bufferView":5,"componentType":5126,"count":218,"type":"VEC3","min":[-0.105,1.495,-0.09737],"max":[0.105,1.83075,0.12]},{"bufferView":6,"componentType":5126,"count":218,"type":"VEC3"},{"bufferView":7,"componentType":5123,"count":218,"type":"VEC4"},{"bufferView":8,"componentType":5126,"count":218,"type":"VEC4"},{"bufferView":9,"componentType":5123,"count":1272,"type":"SCALAR"},{"bufferView":10,"componentType":5126,"count":18,"type":"MAT4"},{"bufferView":11,"componentType":5126,"count":5,"type":"SCALAR","min":[0],"max":[1]},{"bufferView":12,"componentType":5126,"count":5,"type":"VEC4"},{"bufferView":13,"componentType":5126,"count":5,"type":"SCALAR","min":[0],"max":[1]},{"bufferView":14,"componentType":5126,"count":5,"type":"VEC4"},{"bufferView":15,"componentType":5126,"count":5,"type":"SCALAR","min":[0],"max":[1]},{"bufferView":16,"componentType":5126,"count":5,"type":"VEC4"},{"bufferView":17,"componentType":5126,"count":5,"type":"SCALAR","min":[0],"max":[1]},{"bufferView":18,"componentType":5126,"count":5,"type":"VEC4"},{"bufferView":19,"componentType":5126,"count":5,"type":"SCALAR","min":[0],"max":[1]},{"bufferView":20,"componentType":5126,"count":5,"type":"VEC4"},{"bufferView":21,"componentType":5126,"count":5,"type":"SCALAR","min":[0],"max":[1]},{"bufferView":22,"componentType":5126,"count":5,"type":"VEC4"},{"bufferView":23,"componentType":5126,"count":5,"type":"SCALAR","min":[0],"max":[1]},{"bufferView":24,"componentType":5126,"count":5,"type":"VEC4"},{"bufferView":25,"componentType":5126,"count":5,"type":"SCALAR","min":[0],"max":[1]},{"bufferView":26,"componentType":5126,"count":5,"type":"VEC4"},{"bufferView":27,"componentType":5126,"count":5,"type":"SCALAR","min":[0],"max":[1]},{"bufferView":28,"componentType":5126,"count":5,"type":"VEC4"},{"bufferView":29,"componentType":5126,"count":5,"type":"SCALAR","min":[0],"max":[1]},{"bufferView":30,"componentType":5126,"count":5,"type":"VEC3"},{"bufferView":31,"componentType":5126,"count":5,"type":"SCALAR","min":[0],"max":[1]},{"bufferView":32,"componentType":5126,"count":5,"type":"VEC4"},{"bufferView":33,"componentType":5126,"count":5,"type":"SCALAR","min":[0],"max":[1]},{"bufferView":34,"componentType":5126,"count":5,"type":"VEC4"}],"bufferViews":[{"buffer":0,"byteOffset":0,"byteLength":8544,"target":34962},{"buffer":0,"byteOffset":8544,"byteLength":8544,"target":34962},{"buffer":0,"byteOffset":17088,"byteLength":5696,"target":34962},{"buffer":0,"byteOffset":22784,"byteLength":11392,"target":34962},{"buffer":0,"byteOffset":34176,"byteLength":8184,"target":34963},{"buffer":0,"byteOffset":42360,"byteLength":2616,"target":34962},{"buffer":0,"byteOffset":44976,"byteLength":2616,"target":34962},{"buffer":0,"byteOffset":47592,"byteLength":1744,"target":34962},{"buffer":0,"byteOffset":49336,"byteLength":3488,"target":34962},{"buffer":0,"byteOffset":52824,"byteLength":2544,"target":34963},{"buffer":0,"byteOffset":55368,"byteLength":1152},{"buffer":0,"byteOffset":56520,"byteLength":20},{"buffer":0,"byteOffset":56540,"byteLength":80},{"buffer":0,"byteOffset":56620,"byteLength":20},{"buffer":0,"byteOffset":56640,"byteLength":80},{"buffer":0,"byteOffset":56720,"byteLength":20},{"buffer":0,"byteOffset":56740,"byteLength":80},{"buffer":0,"byteOffset":56820,"byteLength":20},{"buffer":0,"byteOffset":56840,"byteLength":80},{"buffer":0,"byteOffset":56920,"byteLength":20},{"buffer":0,"byteOffset":56940,"byteLength":80},{"buffer":0,"byteOffset":57020,"byteLength":20},{"buffer":0,"byteOffset":57040,"byteLength":80},{"buffer":0,"byteOffset":57120,"byteLength":20},{"buffer":0,"byteOffset":57140,"byteLength":80},{"buffer":0,"byteOffset":57220,"byteLength":20},{"buffer":0,"byteOffset":57240,"byteLength":80},{"buffer":0,"byteOffset":57320,"byteLength":20},{"buffer":0,"byteOffset":57340,"byteLength":80},{"buffer":0,"byteOffset":57420,"byteLength":20},{"buffer":0,"byteOffset":57440,"byteLength":60},{"buffer":0,"byteOffset":57500,"byteLength":20},{"buffer":0,"byteOffset":57520,"byteLength":80},{"buffer":0,"byteOffset":57600,"byteLength":20},{"buffer":0,"byteOffset":57620,"byteLength":80}],"buffers":[{"byteLength":57700,"uri":"data:application/octet-stream;base64,"}]}
