#usda 1.0
(
    defaultPrim = "Character"
    metersPerUnit = 1
    upAxis = "Y"
    doc = "Riser stock asset: biped blockout. Generated by tools/make-stock-assets.mjs - do not edit by hand."
)

def Xform "Character"
{
    def Scope "Geom"
    {
        def Mesh "Body"
        {
            uniform token subdivisionScheme = "none"
            point3f[] points = [
                (0.17, 1.07, 0.1), (0.17, 0.81, 0.1), (0.17, 1.07, -0.1), (0.17, 0.81, -0.1),
                (-0.17, 1.07, -0.1), (-0.17, 0.81, -0.1), (-0.17, 1.07, 0.1), (-0.17, 0.81, 0.1),
                (0.18, 1.53, 0.11), (0.18, 1.07, 0.11), (0.18, 1.53, -0.11), (0.18, 1.07, -0.11),
                (-0.18, 1.53, -0.11), (-0.18, 1.07, -0.11), (-0.18, 1.53, 0.11), (-0.18, 1.07, 0.11),
                (0.15, 1.13, 0.095), (0.15, 0.99, 0.095), (0.15, 1.13, -0.095), (0.15, 0.99, -0.095),
                (-0.15, 1.13, -0.095), (-0.15, 0.99, -0.095), (-0.15, 1.13, 0.095), (-0.15, 0.99, 0.095),
                (0.28397, 1.1603, 0), (0.26254, 1.15937, 0), (0.26644, 1.16032, 0.01237), (0.27666, 1.16282, 0.02002),
                (0.2893, 1.16592, 0.02002), (0.29952, 1.16842, 0.01237), (0.30342, 1.16937, 0), (0.29952, 1.16842, -0.01237),
                (0.2893, 1.16592, -0.02002), (0.27666, 1.16282, -0.02002), (0.26644, 1.16032, -0.01237), (0.24237, 1.16671, 0),
                (0.24958, 1.16847, 0.02286), (0.26847, 1.17309, 0.03699), (0.29182, 1.17881, 0.03699), (0.31071, 1.18343, 0.02286),
                (0.31792, 1.18519, 0), (0.31071, 1.18343, -0.02286), (0.29182, 1.17881, -0.03699), (0.26847, 1.17309, -0.03699),
                (0.24958, 1.16847, -0.02286), (0.22655, 1.1812, 0), (0.23597, 1.18351, 0.02987), (0.26065, 1.18955, 0.04833),
                (0.29116, 1.19701, 0.04833), (0.31584, 1.20305, 0.02987), (0.32526, 1.20536, 0), (0.31584, 1.20305, -0.02987),
                (0.29116, 1.19701, -0.04833), (0.26065, 1.18955, -0.04833), (0.23597, 1.18351, -0.02987), (0.21748, 1.20065, 0),
                (0.22768, 1.20315, 0.03233), (0.25439, 1.20969, 0.05231), (0.28741, 1.21777, 0.05231), (0.31412, 1.2243, 0.03233),
                (0.32432, 1.2268, 0), (0.31412, 1.2243, -0.03233), (0.28741, 1.21777, -0.05231), (0.25439, 1.20969, -0.05231),
                (0.22768, 1.20315, -0.03233), (0.15568, 1.4532, 0), (0.16588, 1.4557, 0.03233), (0.19259, 1.46223, 0.05231),
                (0.22561, 1.47031, 0.05231), (0.25232, 1.47685, 0.03233), (0.26252, 1.47935, 0), (0.25232, 1.47685, -0.03233),
                (0.22561, 1.47031, -0.05231), (0.19259, 1.46223, -0.05231), (0.16588, 1.4557, -0.03233), (0.15474, 1.47464, 0),
                (0.16416, 1.47695, 0.02987), (0.18884, 1.48299, 0.04833), (0.21935, 1.49045, 0.04833), (0.24403, 1.49649, 0.02987),
                (0.25345, 1.4988, 0), (0.24403, 1.49649, -0.02987), (0.21935, 1.49045, -0.04833), (0.18884, 1.48299, -0.04833),
                (0.16416, 1.47695, -0.02987), (0.16208, 1.49481, 0), (0.16929, 1.49657, 0.02286), (0.18818, 1.50119, 0.03699),
                (0.21153, 1.50691, 0.03699), (0.23042, 1.51153, 0.02286), (0.23763, 1.51329, 0), (0.23042, 1.51153, -0.02286),
                (0.21153, 1.50691, -0.03699), (0.18818, 1.50119, -0.03699), (0.16929, 1.49657, -0.02286), (0.17658, 1.51063, 0),
                (0.18048, 1.51158, 0.01237), (0.1907, 1.51408, 0.02002), (0.20334, 1.51718, 0.02002), (0.21356, 1.51968, 0.01237),
                (0.21746, 1.52063, 0), (0.21356, 1.51968, -0.01237), (0.20334, 1.51718, -0.02002), (0.1907, 1.51408, -0.02002),
                (0.18048, 1.51158, -0.01237), (0.19603, 1.5197, 0), (0.40338, 0.91535, 0), (0.38465, 0.91528, 0),
                (0.38809, 0.91598, 0.0108), (0.39709, 0.9178, 0.01747), (0.40821, 0.92006, 0.01747), (0.41721, 0.92188, 0.0108),
                (0.42065, 0.92258, 0), (0.41721, 0.92188, -0.0108), (0.40821, 0.92006, -0.01747), (0.39709, 0.9178, -0.01747),
                (0.38809, 0.91598, -0.0108), (0.36732, 0.92238, 0), (0.37367, 0.92367, 0.01995), (0.3903, 0.92704, 0.03228),
                (0.41086, 0.93121, 0.03228), (0.42749, 0.93458, 0.01995), (0.43385, 0.93587, 0), (0.42749, 0.93458, -0.01995),
                (0.41086, 0.93121, -0.03228), (0.3903, 0.92704, -0.03228), (0.37367, 0.92367, -0.01995), (0.35403, 0.93558, 0),
                (0.36233, 0.93726, 0.02607), (0.38406, 0.94167, 0.04218), (0.41092, 0.94711, 0.04218), (0.43265, 0.95152, 0.02607),
                (0.44095, 0.9532, 0), (0.43265, 0.95152, -0.02607), (0.41092, 0.94711, -0.04218), (0.38406, 0.94167, -0.04218),
                (0.36233, 0.93726, -0.02607), (0.3468, 0.95286, 0), (0.35578, 0.95468, 0.02821), (0.3793, 0.95945, 0.04565),
                (0.40838, 0.96534, 0.04565), (0.4319, 0.97011, 0.02821), (0.44088, 0.97193, 0), (0.4319, 0.97011, -0.02821),
                (0.40838, 0.96534, -0.04565), (0.3793, 0.95945, -0.04565), (0.35578, 0.95468, -0.02821), (0.29912, 1.18807, 0),
                (0.3081, 1.18989, 0.02821), (0.33162, 1.19466, 0.04565), (0.3607, 1.20055, 0.04565), (0.38422, 1.20532, 0.02821),
                (0.3932, 1.20714, 0), (0.38422, 1.20532, -0.02821), (0.3607, 1.20055, -0.04565), (0.33162, 1.19466, -0.04565),
                (0.3081, 1.18989, -0.02821), (0.29905, 1.2068, 0), (0.30735, 1.20848, 0.02607), (0.32908, 1.21289, 0.04218),
                (0.35594, 1.21833, 0.04218), (0.37767, 1.22274, 0.02607), (0.38597, 1.22442, 0), (0.37767, 1.22274, -0.02607),
                (0.35594, 1.21833, -0.04218), (0.32908, 1.21289, -0.04218), (0.30735, 1.20848, -0.02607), (0.30615, 1.22413, 0),
                (0.31251, 1.22542, 0.01995), (0.32914, 1.22879, 0.03228), (0.3497, 1.23296, 0.03228), (0.36633, 1.23633, 0.01995),
                (0.37268, 1.23762, 0), (0.36633, 1.23633, -0.01995), (0.3497, 1.23296, -0.03228), (0.32914, 1.22879, -0.03228),
                (0.31251, 1.22542, -0.01995), (0.31935, 1.23742, 0), (0.32278, 1.23812, 0.0108), (0.33179, 1.23994, 0.01747),
                (0.34291, 1.2422, 0.01747), (0.35191, 1.24402, 0.0108), (0.35535, 1.24472, 0), (0.35191, 1.24402, -0.0108),
                (0.34291, 1.2422, -0.01747), (0.33179, 1.23994, -0.01747), (0.32278, 1.23812, -0.0108), (0.33662, 1.24465, 0),
                (0.495, 0.96, 0.02), (0.495, 0.8, 0.02), (0.495, 0.96, -0.02), (0.495, 0.8, -0.02),
                (0.405, 0.96, -0.02), (0.405, 0.8, -0.02), (0.405, 0.96, 0.02), (0.405, 0.8, 0.02),
                (-0.28397, 1.1603, 0), (-0.30342, 1.16937, 0), (-0.29952, 1.16842, 0.01237), (-0.2893, 1.16592, 0.02002),
                (-0.27666, 1.16282, 0.02002), (-0.26644, 1.16032, 0.01237), (-0.26254, 1.15937, 0), (-0.26644, 1.16032, -0.01237),
                (-0.27666, 1.16282, -0.02002), (-0.2893, 1.16592, -0.02002), (-0.29952, 1.16842, -0.01237), (-0.31792, 1.18519, 0),
                (-0.31071, 1.18343, 0.02286), (-0.29182, 1.17881, 0.03699), (-0.26847, 1.17309, 0.03699), (-0.24958, 1.16847, 0.02286),
                (-0.24237, 1.16671, 0), (-0.24958, 1.16847, -0.02286), (-0.26847, 1.17309, -0.03699), (-0.29182, 1.17881, -0.03699),
                (-0.31071, 1.18343, -0.02286), (-0.32526, 1.20536, 0), (-0.31584, 1.20305, 0.02987), (-0.29116, 1.19701, 0.04833),
                (-0.26065, 1.18955, 0.04833), (-0.23597, 1.18351, 0.02987), (-0.22655, 1.1812, 0), (-0.23597, 1.18351, -0.02987),
                (-0.26065, 1.18955, -0.04833), (-0.29116, 1.19701, -0.04833), (-0.31584, 1.20305, -0.02987), (-0.32432, 1.2268, 0),
                (-0.31412, 1.2243, 0.03233), (-0.28741, 1.21777, 0.05231), (-0.25439, 1.20969, 0.05231), (-0.22768, 1.20315, 0.03233),
                (-0.21748, 1.20065, 0), (-0.22768, 1.20315, -0.03233), (-0.25439, 1.20969, -0.05231), (-0.28741, 1.21777, -0.05231),
                (-0.31412, 1.2243, -0.03233), (-0.26252, 1.47935, 0), (-0.25232, 1.47685, 0.03233), (-0.22561, 1.47031, 0.05231),
                (-0.19259, 1.46223, 0.05231), (-0.16588, 1.4557, 0.03233), (-0.15568, 1.4532, 0), (-0.16588, 1.4557, -0.03233),
                (-0.19259, 1.46223, -0.05231), (-0.22561, 1.47031, -0.05231), (-0.25232, 1.47685, -0.03233), (-0.25345, 1.4988, 0),
                (-0.24403, 1.49649, 0.02987), (-0.21935, 1.49045, 0.04833), (-0.18884, 1.48299, 0.04833), (-0.16416, 1.47695, 0.02987),
                (-0.15474, 1.47464, 0), (-0.16416, 1.47695, -0.02987), (-0.18884, 1.48299, -0.04833), (-0.21935, 1.49045, -0.04833),
                (-0.24403, 1.49649, -0.02987), (-0.23763, 1.51329, 0), (-0.23042, 1.51153, 0.02286), (-0.21153, 1.50691, 0.03699),
                (-0.18818, 1.50119, 0.03699), (-0.16929, 1.49657, 0.02286), (-0.16208, 1.49481, 0), (-0.16929, 1.49657, -0.02286),
                (-0.18818, 1.50119, -0.03699), (-0.21153, 1.50691, -0.03699), (-0.23042, 1.51153, -0.02286), (-0.21746, 1.52063, 0),
                (-0.21356, 1.51968, 0.01237), (-0.20334, 1.51718, 0.02002), (-0.1907, 1.51408, 0.02002), (-0.18048, 1.51158, 0.01237),
                (-0.17658, 1.51063, 0), (-0.18048, 1.51158, -0.01237), (-0.1907, 1.51408, -0.02002), (-0.20334, 1.51718, -0.02002),
                (-0.21356, 1.51968, -0.01237), (-0.19603, 1.5197, 0), (-0.40338, 0.91535, 0), (-0.42065, 0.92258, 0),
                (-0.41721, 0.92188, 0.0108), (-0.40821, 0.92006, 0.01747), (-0.39709, 0.9178, 0.01747), (-0.38809, 0.91598, 0.0108),
                (-0.38465, 0.91528, 0), (-0.38809, 0.91598, -0.0108), (-0.39709, 0.9178, -0.01747), (-0.40821, 0.92006, -0.01747),
                (-0.41721, 0.92188, -0.0108), (-0.43385, 0.93587, 0), (-0.42749, 0.93458, 0.01995), (-0.41086, 0.93121, 0.03228),
                (-0.3903, 0.92704, 0.03228), (-0.37367, 0.92367, 0.01995), (-0.36732, 0.92238, 0), (-0.37367, 0.92367, -0.01995),
                (-0.3903, 0.92704, -0.03228), (-0.41086, 0.93121, -0.03228), (-0.42749, 0.93458, -0.01995), (-0.44095, 0.9532, 0),
                (-0.43265, 0.95152, 0.02607), (-0.41092, 0.94711, 0.04218), (-0.38406, 0.94167, 0.04218), (-0.36233, 0.93726, 0.02607),
                (-0.35403, 0.93558, 0), (-0.36233, 0.93726, -0.02607), (-0.38406, 0.94167, -0.04218), (-0.41092, 0.94711, -0.04218),
                (-0.43265, 0.95152, -0.02607), (-0.44088, 0.97193, 0), (-0.4319, 0.97011, 0.02821), (-0.40838, 0.96534, 0.04565),
                (-0.3793, 0.95945, 0.04565), (-0.35578, 0.95468, 0.02821), (-0.3468, 0.95286, 0), (-0.35578, 0.95468, -0.02821),
                (-0.3793, 0.95945, -0.04565), (-0.40838, 0.96534, -0.04565), (-0.4319, 0.97011, -0.02821), (-0.3932, 1.20714, 0),
                (-0.38422, 1.20532, 0.02821), (-0.3607, 1.20055, 0.04565), (-0.33162, 1.19466, 0.04565), (-0.3081, 1.18989, 0.02821),
                (-0.29912, 1.18807, 0), (-0.3081, 1.18989, -0.02821), (-0.33162, 1.19466, -0.04565), (-0.3607, 1.20055, -0.04565),
                (-0.38422, 1.20532, -0.02821), (-0.38597, 1.22442, 0), (-0.37767, 1.22274, 0.02607), (-0.35594, 1.21833, 0.04218),
                (-0.32908, 1.21289, 0.04218), (-0.30735, 1.20848, 0.02607), (-0.29905, 1.2068, 0), (-0.30735, 1.20848, -0.02607),
                (-0.32908, 1.21289, -0.04218), (-0.35594, 1.21833, -0.04218), (-0.37767, 1.22274, -0.02607), (-0.37268, 1.23762, 0),
                (-0.36633, 1.23633, 0.01995), (-0.3497, 1.23296, 0.03228), (-0.32914, 1.22879, 0.03228), (-0.31251, 1.22542, 0.01995),
                (-0.30615, 1.22413, 0), (-0.31251, 1.22542, -0.01995), (-0.32914, 1.22879, -0.03228), (-0.3497, 1.23296, -0.03228),
                (-0.36633, 1.23633, -0.01995), (-0.35535, 1.24472, 0), (-0.35191, 1.24402, 0.0108), (-0.34291, 1.2422, 0.01747),
                (-0.33179, 1.23994, 0.01747), (-0.32278, 1.23812, 0.0108), (-0.31935, 1.23742, 0), (-0.32278, 1.23812, -0.0108),
                (-0.33179, 1.23994, -0.01747), (-0.34291, 1.2422, -0.01747), (-0.35191, 1.24402, -0.0108), (-0.33662, 1.24465, 0),
                (-0.405, 0.96, 0.02), (-0.405, 0.8, 0.02), (-0.405, 0.96, -0.02), (-0.405, 0.8, -0.02),
                (-0.495, 0.96, -0.02), (-0.495, 0.8, -0.02), (-0.495, 0.96, 0.02), (-0.495, 0.8, 0.02),
                (0.1, 0.43, 0), (0.06939, 0.43609, 0), (0.07523, 0.43609, 0.01799), (0.09054, 0.43609, 0.02912),
                (0.10946, 0.43609, 0.02912), (0.12477, 0.43609, 0.01799), (0.13061, 0.43609, 0), (0.12477, 0.43609, -0.01799),
                (0.10946, 0.43609, -0.02912), (0.09054, 0.43609, -0.02912), (0.07523, 0.43609, -0.01799), (0.04343, 0.45343, 0),
                (0.05424, 0.45343, 0.03325), (0.08252, 0.45343, 0.0538), (0.11748, 0.45343, 0.0538), (0.14576, 0.45343, 0.03325),
                (0.15657, 0.45343, 0), (0.14576, 0.45343, -0.03325), (0.11748, 0.45343, -0.0538), (0.08252, 0.45343, -0.0538),
                (0.05424, 0.45343, -0.03325), (0.02609, 0.47939, 0), (0.04021, 0.47939, 0.04344), (0.07716, 0.47939, 0.07029),
                (0.12284, 0.47939, 0.07029), (0.15979, 0.47939, 0.04344), (0.17391, 0.47939, 0), (0.15979, 0.47939, -0.04344),
                (0.12284, 0.47939, -0.07029), (0.07716, 0.47939, -0.07029), (0.04021, 0.47939, -0.04344), (0.02, 0.51, 0),
                (0.03528, 0.51, 0.04702), (0.07528, 0.51, 0.07608), (0.12472, 0.51, 0.07608), (0.16472, 0.51, 0.04702),
                (0.18, 0.51, 0), (0.16472, 0.51, -0.04702), (0.12472, 0.51, -0.07608), (0.07528, 0.51, -0.07608),
                (0.03528, 0.51, -0.04702), (0.02, 0.85, 0), (0.03528, 0.85, 0.04702), (0.07528, 0.85, 0.07608),
                (0.12472, 0.85, 0.07608), (0.16472, 0.85, 0.04702), (0.18, 0.85, 0), (0.16472, 0.85, -0.04702),
                (0.12472, 0.85, -0.07608), (0.07528, 0.85, -0.07608), (0.03528, 0.85, -0.04702), (0.02609, 0.88061, 0),
                (0.04021, 0.88061, 0.04344), (0.07716, 0.88061, 0.07029), (0.12284, 0.88061, 0.07029), (0.15979, 0.88061, 0.04344),
                (0.17391, 0.88061, 0), (0.15979, 0.88061, -0.04344), (0.12284, 0.88061, -0.07029), (0.07716, 0.88061, -0.07029),
                (0.04021, 0.88061, -0.04344), (0.04343, 0.90657, 0), (0.05424, 0.90657, 0.03325), (0.08252, 0.90657, 0.0538),
                (0.11748, 0.90657, 0.0538), (0.14576, 0.90657, 0.03325), (0.15657, 0.90657, 0), (0.14576, 0.90657, -0.03325),
                (0.11748, 0.90657, -0.0538), (0.08252, 0.90657, -0.0538), (0.05424, 0.90657, -0.03325), (0.06939, 0.92391, 0),
                (0.07523, 0.92391, 0.01799), (0.09054, 0.92391, 0.02912), (0.10946, 0.92391, 0.02912), (0.12477, 0.92391, 0.01799),
                (0.13061, 0.92391, 0), (0.12477, 0.92391, -0.01799), (0.10946, 0.92391, -0.02912), (0.09054, 0.92391, -0.02912),
                (0.07523, 0.92391, -0.01799), (0.1, 0.93, 0), (0.1, 0.035, 0), (0.07513, 0.03995, 0),
                (0.07988, 0.03995, 0.01462), (0.09231, 0.03995, 0.02366), (0.10769, 0.03995, 0.02366), (0.12012, 0.03995, 0.01462),
                (0.12487, 0.03995, 0), (0.12012, 0.03995, -0.01462), (0.10769, 0.03995, -0.02366), (0.09231, 0.03995, -0.02366),
                (0.07988, 0.03995, -0.01462), (0.05404, 0.05404, 0), (0.06282, 0.05404, 0.02702), (0.0858, 0.05404, 0.04371),
                (0.1142, 0.05404, 0.04371), (0.13718, 0.05404, 0.02702), (0.14596, 0.05404, 0), (0.13718, 0.05404, -0.02702),
                (0.1142, 0.05404, -0.04371), (0.0858, 0.05404, -0.04371), (0.06282, 0.05404, -0.02702), (0.03995, 0.07513, 0),
                (0.05142, 0.07513, 0.0353), (0.08144, 0.07513, 0.05711), (0.11856, 0.07513, 0.05711), (0.14858, 0.07513, 0.0353),
                (0.16005, 0.07513, 0), (0.14858, 0.07513, -0.0353), (0.11856, 0.07513, -0.05711), (0.08144, 0.07513, -0.05711),
                (0.05142, 0.07513, -0.0353), (0.035, 0.1, 0), (0.04741, 0.1, 0.03821), (0.07991, 0.1, 0.06182),
                (0.12009, 0.1, 0.06182), (0.15259, 0.1, 0.03821), (0.165, 0.1, 0), (0.15259, 0.1, -0.03821),
                (0.12009, 0.1, -0.06182), (0.07991, 0.1, -0.06182), (0.04741, 0.1, -0.03821), (0.035, 0.42, 0),
                (0.04741, 0.42, 0.03821), (0.07991, 0.42, 0.06182), (0.12009, 0.42, 0.06182), (0.15259, 0.42, 0.03821),
                (0.165, 0.42, 0), (0.15259, 0.42, -0.03821), (0.12009, 0.42, -0.06182), (0.07991, 0.42, -0.06182),
                (0.04741, 0.42, -0.03821), (0.03995, 0.44487, 0), (0.05142, 0.44487, 0.0353), (0.08144, 0.44487, 0.05711),
                (0.11856, 0.44487, 0.05711), (0.14858, 0.44487, 0.0353), (0.16005, 0.44487, 0), (0.14858, 0.44487, -0.0353),
                (0.11856, 0.44487, -0.05711), (0.08144, 0.44487, -0.05711), (0.05142, 0.44487, -0.0353), (0.05404, 0.46596, 0),
                (0.06282, 0.46596, 0.02702), (0.0858, 0.46596, 0.04371), (0.1142, 0.46596, 0.04371), (0.13718, 0.46596, 0.02702),
                (0.14596, 0.46596, 0), (0.13718, 0.46596, -0.02702), (0.1142, 0.46596, -0.04371), (0.0858, 0.46596, -0.04371),
                (0.06282, 0.46596, -0.02702), (0.07513, 0.48005, 0), (0.07988, 0.48005, 0.01462), (0.09231, 0.48005, 0.02366),
                (0.10769, 0.48005, 0.02366), (0.12012, 0.48005, 0.01462), (0.12487, 0.48005, 0), (0.12012, 0.48005, -0.01462),
                (0.10769, 0.48005, -0.02366), (0.09231, 0.48005, -0.02366), (0.07988, 0.48005, -0.01462), (0.1, 0.485, 0),
                (0.15, 0.07, 0.17), (0.15, 0, 0.17), (0.15, 0.07, -0.07), (0.15, 0, -0.07),
                (0.05, 0.07, -0.07), (0.05, 0, -0.07), (0.05, 0.07, 0.17), (0.05, 0, 0.17),
                (-0.1, 0.43, 0), (-0.13061, 0.43609, 0), (-0.12477, 0.43609, 0.01799), (-0.10946, 0.43609, 0.02912),
                (-0.09054, 0.43609, 0.02912), (-0.07523, 0.43609, 0.01799), (-0.06939, 0.43609, 0), (-0.07523, 0.43609, -0.01799),
                (-0.09054, 0.43609, -0.02912), (-0.10946, 0.43609, -0.02912), (-0.12477, 0.43609, -0.01799), (-0.15657, 0.45343, 0),
                (-0.14576, 0.45343, 0.03325), (-0.11748, 0.45343, 0.0538), (-0.08252, 0.45343, 0.0538), (-0.05424, 0.45343, 0.03325),
                (-0.04343, 0.45343, 0), (-0.05424, 0.45343, -0.03325), (-0.08252, 0.45343, -0.0538), (-0.11748, 0.45343, -0.0538),
                (-0.14576, 0.45343, -0.03325), (-0.17391, 0.47939, 0), (-0.15979, 0.47939, 0.04344), (-0.12284, 0.47939, 0.07029),
                (-0.07716, 0.47939, 0.07029), (-0.04021, 0.47939, 0.04344), (-0.02609, 0.47939, 0), (-0.04021, 0.47939, -0.04344),
                (-0.07716, 0.47939, -0.07029), (-0.12284, 0.47939, -0.07029), (-0.15979, 0.47939, -0.04344), (-0.18, 0.51, 0),
                (-0.16472, 0.51, 0.04702), (-0.12472, 0.51, 0.07608), (-0.07528, 0.51, 0.07608), (-0.03528, 0.51, 0.04702),
                (-0.02, 0.51, 0), (-0.03528, 0.51, -0.04702), (-0.07528, 0.51, -0.07608), (-0.12472, 0.51, -0.07608),
                (-0.16472, 0.51, -0.04702), (-0.18, 0.85, 0), (-0.16472, 0.85, 0.04702), (-0.12472, 0.85, 0.07608),
                (-0.07528, 0.85, 0.07608), (-0.03528, 0.85, 0.04702), (-0.02, 0.85, 0), (-0.03528, 0.85, -0.04702),
                (-0.07528, 0.85, -0.07608), (-0.12472, 0.85, -0.07608), (-0.16472, 0.85, -0.04702), (-0.17391, 0.88061, 0),
                (-0.15979, 0.88061, 0.04344), (-0.12284, 0.88061, 0.07029), (-0.07716, 0.88061, 0.07029), (-0.04021, 0.88061, 0.04344),
                (-0.02609, 0.88061, 0), (-0.04021, 0.88061, -0.04344), (-0.07716, 0.88061, -0.07029), (-0.12284, 0.88061, -0.07029),
                (-0.15979, 0.88061, -0.04344), (-0.15657, 0.90657, 0), (-0.14576, 0.90657, 0.03325), (-0.11748, 0.90657, 0.0538),
                (-0.08252, 0.90657, 0.0538), (-0.05424, 0.90657, 0.03325), (-0.04343, 0.90657, 0), (-0.05424, 0.90657, -0.03325),
                (-0.08252, 0.90657, -0.0538), (-0.11748, 0.90657, -0.0538), (-0.14576, 0.90657, -0.03325), (-0.13061, 0.92391, 0),
                (-0.12477, 0.92391, 0.01799), (-0.10946, 0.92391, 0.02912), (-0.09054, 0.92391, 0.02912), (-0.07523, 0.92391, 0.01799),
                (-0.06939, 0.92391, 0), (-0.07523, 0.92391, -0.01799), (-0.09054, 0.92391, -0.02912), (-0.10946, 0.92391, -0.02912),
                (-0.12477, 0.92391, -0.01799), (-0.1, 0.93, 0), (-0.1, 0.035, 0), (-0.12487, 0.03995, 0),
                (-0.12012, 0.03995, 0.01462), (-0.10769, 0.03995, 0.02366), (-0.09231, 0.03995, 0.02366), (-0.07988, 0.03995, 0.01462),
                (-0.07513, 0.03995, 0), (-0.07988, 0.03995, -0.01462), (-0.09231, 0.03995, -0.02366), (-0.10769, 0.03995, -0.02366),
                (-0.12012, 0.03995, -0.01462), (-0.14596, 0.05404, 0), (-0.13718, 0.05404, 0.02702), (-0.1142, 0.05404, 0.04371),
                (-0.0858, 0.05404, 0.04371), (-0.06282, 0.05404, 0.02702), (-0.05404, 0.05404, 0), (-0.06282, 0.05404, -0.02702),
                (-0.0858, 0.05404, -0.04371), (-0.1142, 0.05404, -0.04371), (-0.13718, 0.05404, -0.02702), (-0.16005, 0.07513, 0),
                (-0.14858, 0.07513, 0.0353), (-0.11856, 0.07513, 0.05711), (-0.08144, 0.07513, 0.05711), (-0.05142, 0.07513, 0.0353),
                (-0.03995, 0.07513, 0), (-0.05142, 0.07513, -0.0353), (-0.08144, 0.07513, -0.05711), (-0.11856, 0.07513, -0.05711),
                (-0.14858, 0.07513, -0.0353), (-0.165, 0.1, 0), (-0.15259, 0.1, 0.03821), (-0.12009, 0.1, 0.06182),
                (-0.07991, 0.1, 0.06182), (-0.04741, 0.1, 0.03821), (-0.035, 0.1, 0), (-0.04741, 0.1, -0.03821),
                (-0.07991, 0.1, -0.06182), (-0.12009, 0.1, -0.06182), (-0.15259, 0.1, -0.03821), (-0.165, 0.42, 0),
                (-0.15259, 0.42, 0.03821), (-0.12009, 0.42, 0.06182), (-0.07991, 0.42, 0.06182), (-0.04741, 0.42, 0.03821),
                (-0.035, 0.42, 0), (-0.04741, 0.42, -0.03821), (-0.07991, 0.42, -0.06182), (-0.12009, 0.42, -0.06182),
                (-0.15259, 0.42, -0.03821), (-0.16005, 0.44487, 0), (-0.14858, 0.44487, 0.0353), (-0.11856, 0.44487, 0.05711),
                (-0.08144, 0.44487, 0.05711), (-0.05142, 0.44487, 0.0353), (-0.03995, 0.44487, 0), (-0.05142, 0.44487, -0.0353),
                (-0.08144, 0.44487, -0.05711), (-0.11856, 0.44487, -0.05711), (-0.14858, 0.44487, -0.0353), (-0.14596, 0.46596, 0),
                (-0.13718, 0.46596, 0.02702), (-0.1142, 0.46596, 0.04371), (-0.0858, 0.46596, 0.04371), (-0.06282, 0.46596, 0.02702),
                (-0.05404, 0.46596, 0), (-0.06282, 0.46596, -0.02702), (-0.0858, 0.46596, -0.04371), (-0.1142, 0.46596, -0.04371),
                (-0.13718, 0.46596, -0.02702), (-0.12487, 0.48005, 0), (-0.12012, 0.48005, 0.01462), (-0.10769, 0.48005, 0.02366),
                (-0.09231, 0.48005, 0.02366), (-0.07988, 0.48005, 0.01462), (-0.07513, 0.48005, 0), (-0.07988, 0.48005, -0.01462),
                (-0.09231, 0.48005, -0.02366), (-0.10769, 0.48005, -0.02366), (-0.12012, 0.48005, -0.01462), (-0.1, 0.485, 0),
                (-0.05, 0.07, 0.17), (-0.05, 0, 0.17), (-0.05, 0.07, -0.07), (-0.05, 0, -0.07),
                (-0.15, 0.07, -0.07), (-0.15, 0, -0.07), (-0.15, 0.07, 0.17), (-0.15, 0, 0.17)
            ]
            int[] faceVertexCounts = [
                3, 3, 3, 3, 3, 3, 3, 3, 3, 3, 3, 3, 3, 3, 3, 3, 3, 3, 3, 3, 3, 3, 3, 3,
                3, 3, 3, 3, 3, 3, 3, 3, 3, 3, 3, 3, 3, 3, 3, 3, 3, 3, 3, 3, 3, 3, 3, 3,
                3, 3, 3, 3, 3, 3, 3, 3, 3, 3, 3, 3, 3, 3, 3, 3, 3, 3, 3, 3, 3, 3, 3, 3,
                3, 3, 3, 3, 3, 3, 3, 3, 3, 3, 3, 3, 3, 3, 3, 3, 3, 3, 3, 3, 3, 3, 3, 3,
                3, 3, 3, 3, 3, 3, 3, 3, 3, 3, 3, 3, 3, 3, 3, 3, 3, 3, 3, 3, 3, 3, 3, 3,
                3, 3, 3, 3, 3, 3, 3, 3, 3, 3, 3, 3, 3, 3, 3, 3, 3, 3, 3, 3, 3, 3, 3, 3,
                3, 3, 3, 3, 3, 3, 3, 3, 3, 3, 3, 3, 3, 3, 3, 3, 3, 3, 3, 3, 3, 3, 3, 3,
                3, 3, 3, 3, 3, 3, 3, 3, 3, 3, 3, 3, 3, 3, 3, 3, 3, 3, 3, 3, 3, 3, 3, 3,
                3, 3, 3, 3, 3, 3, 3, 3, 3, 3, 3, 3, 3, 3, 3, 3, 3, 3, 3, 3, 3, 3, 3, 3,
                3, 3, 3, 3, 3, 3, 3, 3, 3, 3, 3, 3, 3, 3, 3, 3, 3, 3, 3, 3, 3, 3, 3, 3,
                3, 3, 3, 3, 3, 3, 3, 3, 3, 3, 3, 3, 3, 3, 3, 3, 3, 3, 3, 3, 3, 3, 3, 3,
                3, 3, 3, 3, 3, 3, 3, 3, 3, 3, 3, 3, 3, 3, 3, 3, 3, 3, 3, 3, 3, 3, 3, 3,
                3, 3, 3, 3, 3, 3, 3, 3, 3, 3, 3, 3, 3, 3, 3, 3, 3, 3, 3, 3, 3, 3, 3, 3,
                3, 3, 3, 3, 3, 3, 3, 3, 3, 3, 3, 3, 3, 3, 3, 3, 3, 3, 3, 3, 3, 3, 3, 3,
                3, 3, 3, 3, 3, 3, 3, 3, 3, 3, 3, 3, 3, 3, 3, 3, 3, 3, 3, 3, 3, 3, 3, 3,
                3, 3, 3, 3, 3, 3, 3, 3, 3, 3, 3, 3, 3, 3, 3, 3, 3, 3, 3, 3, 3, 3, 3, 3,
                3, 3, 3, 3, 3, 3, 3, 3, 3, 3, 3, 3, 3, 3, 3, 3, 3, 3, 3, 3, 3, 3, 3, 3,
                3, 3, 3, 3, 3, 3, 3, 3, 3, 3, 3, 3, 3, 3, 3, 3, 3, 3, 3, 3, 3, 3, 3, 3,
                3, 3, 3, 3, 3, 3, 3, 3, 3, 3, 3, 3, 3, 3, 3, 3, 3, 3, 3, 3, 3, 3, 3, 3,
                3, 3, 3, 3, 3, 3, 3, 3, 3, 3, 3, 3, 3, 3, 3, 3, 3, 3, 3, 3, 3, 3, 3, 3,
                3, 3, 3, 3, 3, 3, 3, 3, 3, 3, 3, 3, 3, 3, 3, 3, 3, 3, 3, 3, 3, 3, 3, 3,
                3, 3, 3, 3, 3, 3, 3, 3, 3, 3, 3, 3, 3, 3, 3, 3, 3, 3, 3, 3, 3, 3, 3, 3,
                3, 3, 3, 3, 3, 3, 3, 3, 3, 3, 3, 3, 3, 3, 3, 3, 3, 3, 3, 3, 3, 3, 3, 3,
                3, 3, 3, 3, 3, 3, 3, 3, 3, 3, 3, 3, 3, 3, 3, 3, 3, 3, 3, 3, 3, 3, 3, 3,
                3, 3, 3, 3, 3, 3, 3, 3, 3, 3, 3, 3, 3, 3, 3, 3, 3, 3, 3, 3, 3, 3, 3, 3,
                3, 3, 3, 3, 3, 3, 3, 3, 3, 3, 3, 3, 3, 3, 3, 3, 3, 3, 3, 3, 3, 3, 3, 3,
                3, 3, 3, 3, 3, 3, 3, 3, 3, 3, 3, 3, 3, 3, 3, 3, 3, 3, 3, 3, 3, 3, 3, 3,
                3, 3, 3, 3, 3, 3, 3, 3, 3, 3, 3, 3, 3, 3, 3, 3, 3, 3, 3, 3, 3, 3, 3, 3,
                3, 3, 3, 3, 3, 3, 3, 3, 3, 3, 3, 3, 3, 3, 3, 3, 3, 3, 3, 3, 3, 3, 3, 3,
                3, 3, 3, 3, 3, 3, 3, 3, 3, 3, 3, 3, 3, 3, 3, 3, 3, 3, 3, 3, 3, 3, 3, 3,
                3, 3, 3, 3, 3, 3, 3, 3, 3, 3, 3, 3, 3, 3, 3, 3, 3, 3, 3, 3, 3, 3, 3, 3,
                3, 3, 3, 3, 3, 3, 3, 3, 3, 3, 3, 3, 3, 3, 3, 3, 3, 3, 3, 3, 3, 3, 3, 3,
                3, 3, 3, 3, 3, 3, 3, 3, 3, 3, 3, 3, 3, 3, 3, 3, 3, 3, 3, 3, 3, 3, 3, 3,
                3, 3, 3, 3, 3, 3, 3, 3, 3, 3, 3, 3, 3, 3, 3, 3, 3, 3, 3, 3, 3, 3, 3, 3,
                3, 3, 3, 3, 3, 3, 3, 3, 3, 3, 3, 3, 3, 3, 3, 3, 3, 3, 3, 3, 3, 3, 3, 3,
                3, 3, 3, 3, 3, 3, 3, 3, 3, 3, 3, 3, 3, 3, 3, 3, 3, 3, 3, 3, 3, 3, 3, 3,
                3, 3, 3, 3, 3, 3, 3, 3, 3, 3, 3, 3, 3, 3, 3, 3, 3, 3, 3, 3, 3, 3, 3, 3,
                3, 3, 3, 3, 3, 3, 3, 3, 3, 3, 3, 3, 3, 3, 3, 3, 3, 3, 3, 3, 3, 3, 3, 3,
                3, 3, 3, 3, 3, 3, 3, 3, 3, 3, 3, 3, 3, 3, 3, 3, 3, 3, 3, 3, 3, 3, 3, 3,
                3, 3, 3, 3, 3, 3, 3, 3, 3, 3, 3, 3, 3, 3, 3, 3, 3, 3, 3, 3, 3, 3, 3, 3,
                3, 3, 3, 3, 3, 3, 3, 3, 3, 3, 3, 3, 3, 3, 3, 3, 3, 3, 3, 3, 3, 3, 3, 3,
                3, 3, 3, 3, 3, 3, 3, 3, 3, 3, 3, 3, 3, 3, 3, 3, 3, 3, 3, 3, 3, 3, 3, 3,
                3, 3, 3, 3, 3, 3, 3, 3, 3, 3, 3, 3, 3, 3, 3, 3, 3, 3, 3, 3, 3, 3, 3, 3,
                3, 3, 3, 3, 3, 3, 3, 3, 3, 3, 3, 3, 3, 3, 3, 3, 3, 3, 3, 3, 3, 3, 3, 3,
                3, 3, 3, 3, 3, 3, 3, 3, 3, 3, 3, 3, 3, 3, 3, 3, 3, 3, 3, 3, 3, 3, 3, 3,
                3, 3, 3, 3, 3, 3, 3, 3, 3, 3, 3, 3, 3, 3, 3, 3, 3, 3, 3, 3, 3, 3, 3, 3,
                3, 3, 3, 3, 3, 3, 3, 3, 3, 3, 3, 3, 3, 3, 3, 3, 3, 3, 3, 3, 3, 3, 3, 3,
                3, 3, 3, 3, 3, 3, 3, 3, 3, 3, 3, 3, 3, 3, 3, 3, 3, 3, 3, 3, 3, 3, 3, 3,
                3, 3, 3, 3, 3, 3, 3, 3, 3, 3, 3, 3, 3, 3, 3, 3, 3, 3, 3, 3, 3, 3, 3, 3,
                3, 3, 3, 3, 3, 3, 3, 3, 3, 3, 3, 3, 3, 3, 3, 3, 3, 3, 3, 3, 3, 3, 3, 3,
                3, 3, 3, 3, 3, 3, 3, 3, 3, 3, 3, 3, 3, 3, 3, 3, 3, 3, 3, 3, 3, 3, 3, 3,
                3, 3, 3, 3, 3, 3, 3, 3, 3, 3, 3, 3, 3, 3, 3, 3, 3, 3, 3, 3, 3, 3, 3, 3,
                3, 3, 3, 3, 3, 3, 3, 3, 3, 3, 3, 3, 3, 3, 3, 3, 3, 3, 3, 3, 3, 3, 3, 3,
                3, 3, 3, 3, 3, 3, 3, 3, 3, 3, 3, 3, 3, 3, 3, 3, 3, 3, 3, 3, 3, 3, 3, 3,
                3, 3, 3, 3, 3, 3, 3, 3, 3, 3, 3, 3, 3, 3, 3, 3, 3, 3, 3, 3, 3, 3, 3, 3,
                3, 3, 3, 3, 3, 3, 3, 3, 3, 3, 3, 3, 3, 3, 3, 3, 3, 3, 3, 3, 3, 3, 3, 3,
                3, 3, 3, 3, 3, 3, 3, 3, 3, 3, 3, 3, 3, 3, 3, 3, 3, 3, 3, 3
            ]
            int[] faceVertexIndices = [
                0, 1, 2, 1, 3, 2, 4, 5, 6, 5, 7, 6, 4, 6, 2, 6, 0, 2,
                7, 5, 1, 5, 3, 1, 6, 7, 0, 7, 1, 0, 2, 3, 4, 3, 5, 4,
                8, 9, 10, 9, 11, 10, 12, 13, 14, 13, 15, 14, 12, 14, 10, 14, 8, 10,
                15, 13, 9, 13, 11, 9, 14, 15, 8, 15, 9, 8, 10, 11, 12, 11, 13, 12,
                16, 17, 18, 17, 19, 18, 20, 21, 22, 21, 23, 22, 20, 22, 18, 22, 16, 18,
                23, 21, 17, 21, 19, 17, 22, 23, 16, 23, 17, 16, 18, 19, 20, 19, 21, 20,
                24, 26, 25, 24, 27, 26, 24, 28, 27, 24, 29, 28, 24, 30, 29, 24, 31, 30,
                24, 32, 31, 24, 33, 32, 24, 34, 33, 24, 25, 34, 25, 26, 35, 26, 36, 35,
                26, 27, 36, 27, 37, 36, 27, 28, 37, 28, 38, 37, 28, 29, 38, 29, 39, 38,
                29, 30, 39, 30, 40, 39, 30, 31, 40, 31, 41, 40, 31, 32, 41, 32, 42, 41,
                32, 33, 42, 33, 43, 42, 33, 34, 43, 34, 44, 43, 34, 25, 44, 25, 35, 44,
                35, 36, 45, 36, 46, 45, 36, 37, 46, 37, 47, 46, 37, 38, 47, 38, 48, 47,
                38, 39, 48, 39, 49, 48, 39, 40, 49, 40, 50, 49, 40, 41, 50, 41, 51, 50,
                41, 42, 51, 42, 52, 51, 42, 43, 52, 43, 53, 52, 43, 44, 53, 44, 54, 53,
                44, 35, 54, 35, 45, 54, 45, 46, 55, 46, 56, 55, 46, 47, 56, 47, 57, 56,
                47, 48, 57, 48, 58, 57, 48, 49, 58, 49, 59, 58, 49, 50, 59, 50, 60, 59,
                50, 51, 60, 51, 61, 60, 51, 52, 61, 52, 62, 61, 52, 53, 62, 53, 63, 62,
                53, 54, 63, 54, 64, 63, 54, 45, 64, 45, 55, 64, 55, 56, 65, 56, 66, 65,
                56, 57, 66, 57, 67, 66, 57, 58, 67, 58, 68, 67, 58, 59, 68, 59, 69, 68,
                59, 60, 69, 60, 70, 69, 60, 61, 70, 61, 71, 70, 61, 62, 71, 62, 72, 71,
                62, 63, 72, 63, 73, 72, 63, 64, 73, 64, 74, 73, 64, 55, 74, 55, 65, 74,
                65, 66, 75, 66, 76, 75, 66, 67, 76, 67, 77, 76, 67, 68, 77, 68, 78, 77,
                68, 69, 78, 69, 79, 78, 69, 70, 79, 70, 80, 79, 70, 71, 80, 71, 81, 80,
                71, 72, 81, 72, 82, 81, 72, 73, 82, 73, 83, 82, 73, 74, 83, 74, 84, 83,
                74, 65, 84, 65, 75, 84, 75, 76, 85, 76, 86, 85, 76, 77, 86, 77, 87, 86,
                77, 78, 87, 78, 88, 87, 78, 79, 88, 79, 89, 88, 79, 80, 89, 80, 90, 89,
                80, 81, 90, 81, 91, 90, 81, 82, 91, 82, 92, 91, 82, 83, 92, 83, 93, 92,
                83, 84, 93, 84, 94, 93, 84, 75, 94, 75, 85, 94, 85, 86, 95, 86, 96, 95,
                86, 87, 96, 87, 97, 96, 87, 88, 97, 88, 98, 97, 88, 89, 98, 89, 99, 98,
                89, 90, 99, 90, 100, 99, 90, 91, 100, 91, 101, 100, 91, 92, 101, 92, 102, 101,
                92, 93, 102, 93, 103, 102, 93, 94, 103, 94, 104, 103, 94, 85, 104, 85, 95, 104,
                95, 96, 105, 96, 97, 105, 97, 98, 105, 98, 99, 105, 99, 100, 105, 100, 101, 105,
                101, 102, 105, 102, 103, 105, 103, 104, 105, 104, 95, 105, 106, 108, 107, 106, 109, 108,
                106, 110, 109, 106, 111, 110, 106, 112, 111, 106, 113, 112, 106, 114, 113, 106, 115, 114,
                106, 116, 115, 106, 107, 116, 107, 108, 117, 108, 118, 117, 108, 109, 118, 109, 119, 118,
                109, 110, 119, 110, 120, 119, 110, 111, 120, 111, 121, 120, 111, 112, 121, 112, 122, 121,
                112, 113, 122, 113, 123, 122, 113, 114, 123, 114, 124, 123, 114, 115, 124, 115, 125, 124,
                115, 116, 125, 116, 126, 125, 116, 107, 126, 107, 117, 126, 117, 118, 127, 118, 128, 127,
                118, 119, 128, 119, 129, 128, 119, 120, 129, 120, 130, 129, 120, 121, 130, 121, 131, 130,
                121, 122, 131, 122, 132, 131, 122, 123, 132, 123, 133, 132, 123, 124, 133, 124, 134, 133,
                124, 125, 134, 125, 135, 134, 125, 126, 135, 126, 136, 135, 126, 117, 136, 117, 127, 136,
                127, 128, 137, 128, 138, 137, 128, 129, 138, 129, 139, 138, 129, 130, 139, 130, 140, 139,
                130, 131, 140, 131, 141, 140, 131, 132, 141, 132, 142, 141, 132, 133, 142, 133, 143, 142,
                133, 134, 143, 134, 144, 143, 134, 135, 144, 135, 145, 144, 135, 136, 145, 136, 146, 145,
                136, 127, 146, 127, 137, 146, 137, 138, 147, 138, 148, 147, 138, 139, 148, 139, 149, 148,
                139, 140, 149, 140, 150, 149, 140, 141, 150, 141, 151, 150, 141, 142, 151, 142, 152, 151,
                142, 143, 152, 143, 153, 152, 143, 144, 153, 144, 154, 153, 144, 145, 154, 145, 155, 154,
                145, 146, 155, 146, 156, 155, 146, 137, 156, 137, 147, 156, 147, 148, 157, 148, 158, 157,
                148, 149, 158, 149, 159, 158, 149, 150, 159, 150, 160, 159, 150, 151, 160, 151, 161, 160,
                151, 152, 161, 152, 162, 161, 152, 153, 162, 153, 163, 162, 153, 154, 163, 154, 164, 163,
                154, 155, 164, 155, 165, 164, 155, 156, 165, 156, 166, 165, 156, 147, 166, 147, 157, 166,
                157, 158, 167, 158, 168, 167, 158, 159, 168, 159, 169, 168, 159, 160, 169, 160, 170, 169,
                160, 161, 170, 161, 171, 170, 161, 162, 171, 162, 172, 171, 162, 163, 172, 163, 173, 172,
                163, 164, 173, 164, 174, 173, 164, 165, 174, 165, 175, 174, 165, 166, 175, 166, 176, 175,
                166, 157, 176, 157, 167, 176, 167, 168, 177, 168, 178, 177, 168, 169, 178, 169, 179, 178,
                169, 170, 179, 170, 180, 179, 170, 171, 180, 171, 181, 180, 171, 172, 181, 172, 182, 181,
                172, 173, 182, 173, 183, 182, 173, 174, 183, 174, 184, 183, 174, 175, 184, 175, 185, 184,
                175, 176, 185, 176, 186, 185, 176, 167, 186, 167, 177, 186, 177, 178, 187, 178, 179, 187,
                179, 180, 187, 180, 181, 187, 181, 182, 187, 182, 183, 187, 183, 184, 187, 184, 185, 187,
                185, 186, 187, 186, 177, 187, 188, 189, 190, 189, 191, 190, 192, 193, 194, 193, 195, 194,
                192, 194, 190, 194, 188, 190, 195, 193, 189, 193, 191, 189, 194, 195, 188, 195, 189, 188,
                190, 191, 192, 191, 193, 192, 196, 198, 197, 196, 199, 198, 196, 200, 199, 196, 201, 200,
                196, 202, 201, 196, 203, 202, 196, 204, 203, 196, 205, 204, 196, 206, 205, 196, 197, 206,
                197, 198, 207, 198, 208, 207, 198, 199, 208, 199, 209, 208, 199, 200, 209, 200, 210, 209,
                200, 201, 210, 201, 211, 210, 201, 202, 211, 202, 212, 211, 202, 203, 212, 203, 213, 212,
                203, 204, 213, 204, 214, 213, 204, 205, 214, 205, 215, 214, 205, 206, 215, 206, 216, 215,
                206, 197, 216, 197, 207, 216, 207, 208, 217, 208, 218, 217, 208, 209, 218, 209, 219, 218,
                209, 210, 219, 210, 220, 219, 210, 211, 220, 211, 221, 220, 211, 212, 221, 212, 222, 221,
                212, 213, 222, 213, 223, 222, 213, 214, 223, 214, 224, 223, 214, 215, 224, 215, 225, 224,
                215, 216, 225, 216, 226, 225, 216, 207, 226, 207, 217, 226, 217, 218, 227, 218, 228, 227,
                218, 219, 228, 219, 229, 228, 219, 220, 229, 220, 230, 229, 220, 221, 230, 221, 231, 230,
                221, 222, 231, 222, 232, 231, 222, 223, 232, 223, 233, 232, 223, 224, 233, 224, 234, 233,
                224, 225, 234, 225, 235, 234, 225, 226, 235, 226, 236, 235, 226, 217, 236, 217, 227, 236,
                227, 228, 237, 228, 238, 237, 228, 229, 238, 229, 239, 238, 229, 230, 239, 230, 240, 239,
                230, 231, 240, 231, 241, 240, 231, 232, 241, 232, 242, 241, 232, 233, 242, 233, 243, 242,
                233, 234, 243, 234, 244, 243, 234, 235, 244, 235, 245, 244, 235, 236, 245, 236, 246, 245,
                236, 227, 246, 227, 237, 246, 237, 238, 247, 238, 248, 247, 238, 239, 248, 239, 249, 248,
                239, 240, 249, 240, 250, 249, 240, 241, 250, 241, 251, 250, 241, 242, 251, 242, 252, 251,
                242, 243, 252, 243, 253, 252, 243, 244, 253, 244, 254, 253, 244, 245, 254, 245, 255, 254,
                245, 246, 255, 246, 256, 255, 246, 237, 256, 237, 247, 256, 247, 248, 257, 248, 258, 257,
                248, 249, 258, 249, 259, 258, 249, 250, 259, 250, 260, 259, 250, 251, 260, 251, 261, 260,
                251, 252, 261, 252, 262, 261, 252, 253, 262, 253, 263, 262, 253, 254, 263, 254, 264, 263,
                254, 255, 264, 255, 265, 264, 255, 256, 265, 256, 266, 265, 256, 247, 266, 247, 257, 266,
                257, 258, 267, 258, 268, 267, 258, 259, 268, 259, 269, 268, 259, 260, 269, 260, 270, 269,
                260, 261, 270, 261, 271, 270, 261, 262, 271, 262, 272, 271, 262, 263, 272, 263, 273, 272,
                263, 264, 273, 264, 274, 273, 264, 265, 274, 265, 275, 274, 265, 266, 275, 266, 276, 275,
                266, 257, 276, 257, 267, 276, 267, 268, 277, 268, 269, 277, 269, 270, 277, 270, 271, 277,
                271, 272, 277, 272, 273, 277, 273, 274, 277, 274, 275, 277, 275, 276, 277, 276, 267, 277,
                278, 280, 279, 278, 281, 280, 278, 282, 281, 278, 283, 282, 278, 284, 283, 278, 285, 284,
                278, 286, 285, 278, 287, 286, 278, 288, 287, 278, 279, 288, 279, 280, 289, 280, 290, 289,
                280, 281, 290, 281, 291, 290, 281, 282, 291, 282, 292, 291, 282, 283, 292, 283, 293, 292,
                283, 284, 293, 284, 294, 293, 284, 285, 294, 285, 295, 294, 285, 286, 295, 286, 296, 295,
                286, 287, 296, 287, 297, 296, 287, 288, 297, 288, 298, 297, 288, 279, 298, 279, 289, 298,
                289, 290, 299, 290, 300, 299, 290, 291, 300, 291, 301, 300, 291, 292, 301, 292, 302, 301,
                292, 293, 302, 293, 303, 302, 293, 294, 303, 294, 304, 303, 294, 295, 304, 295, 305, 304,
                295, 296, 305, 296, 306, 305, 296, 297, 306, 297, 307, 306, 297, 298, 307, 298, 308, 307,
                298, 289, 308, 289, 299, 308, 299, 300, 309, 300, 310, 309, 300, 301, 310, 301, 311, 310,
                301, 302, 311, 302, 312, 311, 302, 303, 312, 303, 313, 312, 303, 304, 313, 304, 314, 313,
                304, 305, 314, 305, 315, 314, 305, 306, 315, 306, 316, 315, 306, 307, 316, 307, 317, 316,
                307, 308, 317, 308, 318, 317, 308, 299, 318, 299, 309, 318, 309, 310, 319, 310, 320, 319,
                310, 311, 320, 311, 321, 320, 311, 312, 321, 312, 322, 321, 312, 313, 322, 313, 323, 322,
                313, 314, 323, 314, 324, 323, 314, 315, 324, 315, 325, 324, 315, 316, 325, 316, 326, 325,
                316, 317, 326, 317, 327, 326, 317, 318, 327, 318, 328, 327, 318, 309, 328, 309, 319, 328,
                319, 320, 329, 320, 330, 329, 320, 321, 330, 321, 331, 330, 321, 322, 331, 322, 332, 331,
                322, 323, 332, 323, 333, 332, 323, 324, 333, 324, 334, 333, 324, 325, 334, 325, 335, 334,
                325, 326, 335, 326, 336, 335, 326, 327, 336, 327, 337, 336, 327, 328, 337, 328, 338, 337,
                328, 319, 338, 319, 329, 338, 329, 330, 339, 330, 340, 339, 330, 331, 340, 331, 341, 340,
                331, 332, 341, 332, 342, 341, 332, 333, 342, 333, 343, 342, 333, 334, 343, 334, 344, 343,
                334, 335, 344, 335, 345, 344, 335, 336, 345, 336, 346, 345, 336, 337, 346, 337, 347, 346,
                337, 338, 347, 338, 348, 347, 338, 329, 348, 329, 339, 348, 339, 340, 349, 340, 350, 349,
                340, 341, 350, 341, 351, 350, 341, 342, 351, 342, 352, 351, 342, 343, 352, 343, 353, 352,
                343, 344, 353, 344, 354, 353, 344, 345, 354, 345, 355, 354, 345, 346, 355, 346, 356, 355,
                346, 347, 356, 347, 357, 356, 347, 348, 357, 348, 358, 357, 348, 339, 358, 339, 349, 358,
                349, 350, 359, 350, 351, 359, 351, 352, 359, 352, 353, 359, 353, 354, 359, 354, 355, 359,
                355, 356, 359, 356, 357, 359, 357, 358, 359, 358, 349, 359, 360, 361, 362, 361, 363, 362,
                364, 365, 366, 365, 367, 366, 364, 366, 362, 366, 360, 362, 367, 365, 361, 365, 363, 361,
                366, 367, 360, 367, 361, 360, 362, 363, 364, 363, 365, 364, 368, 370, 369, 368, 371, 370,
                368, 372, 371, 368, 373, 372, 368, 374, 373, 368, 375, 374, 368, 376, 375, 368, 377, 376,
                368, 378, 377, 368, 369, 378, 369, 370, 379, 370, 380, 379, 370, 371, 380, 371, 381, 380,
                371, 372, 381, 372, 382, 381, 372, 373, 382, 373, 383, 382, 373, 374, 383, 374, 384, 383,
                374, 375, 384, 375, 385, 384, 375, 376, 385, 376, 386, 385, 376, 377, 386, 377, 387, 386,
                377, 378, 387, 378, 388, 387, 378, 369, 388, 369, 379, 388, 379, 380, 389, 380, 390, 389,
                380, 381, 390, 381, 391, 390, 381, 382, 391, 382, 392, 391, 382, 383, 392, 383, 393, 392,
                383, 384, 393, 384, 394, 393, 384, 385, 394, 385, 395, 394, 385, 386, 395, 386, 396, 395,
                386, 387, 396, 387, 397, 396, 387, 388, 397, 388, 398, 397, 388, 379, 398, 379, 389, 398,
                389, 390, 399, 390, 400, 399, 390, 391, 400, 391, 401, 400, 391, 392, 401, 392, 402, 401,
                392, 393, 402, 393, 403, 402, 393, 394, 403, 394, 404, 403, 394, 395, 404, 395, 405, 404,
                395, 396, 405, 396, 406, 405, 396, 397, 406, 397, 407, 406, 397, 398, 407, 398, 408, 407,
                398, 389, 408, 389, 399, 408, 399, 400, 409, 400, 410, 409, 400, 401, 410, 401, 411, 410,
                401, 402, 411, 402, 412, 411, 402, 403, 412, 403, 413, 412, 403, 404, 413, 404, 414, 413,
                404, 405, 414, 405, 415, 414, 405, 406, 415, 406, 416, 415, 406, 407, 416, 407, 417, 416,
                407, 408, 417, 408, 418, 417, 408, 399, 418, 399, 409, 418, 409, 410, 419, 410, 420, 419,
                410, 411, 420, 411, 421, 420, 411, 412, 421, 412, 422, 421, 412, 413, 422, 413, 423, 422,
                413, 414, 423, 414, 424, 423, 414, 415, 424, 415, 425, 424, 415, 416, 425, 416, 426, 425,
                416, 417, 426, 417, 427, 426, 417, 418, 427, 418, 428, 427, 418, 409, 428, 409, 419, 428,
                419, 420, 429, 420, 430, 429, 420, 421, 430, 421, 431, 430, 421, 422, 431, 422, 432, 431,
                422, 423, 432, 423, 433, 432, 423, 424, 433, 424, 434, 433, 424, 425, 434, 425, 435, 434,
                425, 426, 435, 426, 436, 435, 426, 427, 436, 427, 437, 436, 427, 428, 437, 428, 438, 437,
                428, 419, 438, 419, 429, 438, 429, 430, 439, 430, 440, 439, 430, 431, 440, 431, 441, 440,
                431, 432, 441, 432, 442, 441, 432, 433, 442, 433, 443, 442, 433, 434, 443, 434, 444, 443,
                434, 435, 444, 435, 445, 444, 435, 436, 445, 436, 446, 445, 436, 437, 446, 437, 447, 446,
                437, 438, 447, 438, 448, 447, 438, 429, 448, 429, 439, 448, 439, 440, 449, 440, 441, 449,
                441, 442, 449, 442, 443, 449, 443, 444, 449, 444, 445, 449, 445, 446, 449, 446, 447, 449,
                447, 448, 449, 448, 439, 449, 450, 452, 451, 450, 453, 452, 450, 454, 453, 450, 455, 454,
                450, 456, 455, 450, 457, 456, 450, 458, 457, 450, 459, 458, 450, 460, 459, 450, 451, 460,
                451, 452, 461, 452, 462, 461, 452, 453, 462, 453, 463, 462, 453, 454, 463, 454, 464, 463,
                454, 455, 464, 455, 465, 464, 455, 456, 465, 456, 466, 465, 456, 457, 466, 457, 467, 466,
                457, 458, 467, 458, 468, 467, 458, 459, 468, 459, 469, 468, 459, 460, 469, 460, 470, 469,
                460, 451, 470, 451, 461, 470, 461, 462, 471, 462, 472, 471, 462, 463, 472, 463, 473, 472,
                463, 464, 473, 464, 474, 473, 464, 465, 474, 465, 475, 474, 465, 466, 475, 466, 476, 475,
                466, 467, 476, 467, 477, 476, 467, 468, 477, 468, 478, 477, 468, 469, 478, 469, 479, 478,
                469, 470, 479, 470, 480, 479, 470, 461, 480, 461, 471, 480, 471, 472, 481, 472, 482, 481,
                472, 473, 482, 473, 483, 482, 473, 474, 483, 474, 484, 483, 474, 475, 484, 475, 485, 484,
                475, 476, 485, 476, 486, 485, 476, 477, 486, 477, 487, 486, 477, 478, 487, 478, 488, 487,
                478, 479, 488, 479, 489, 488, 479, 480, 489, 480, 490, 489, 480, 471, 490, 471, 481, 490,
                481, 482, 491, 482, 492, 491, 482, 483, 492, 483, 493, 492, 483, 484, 493, 484, 494, 493,
                484, 485, 494, 485, 495, 494, 485, 486, 495, 486, 496, 495, 486, 487, 496, 487, 497, 496,
                487, 488, 497, 488, 498, 497, 488, 489, 498, 489, 499, 498, 489, 490, 499, 490, 500, 499,
                490, 481, 500, 481, 491, 500, 491, 492, 501, 492, 502, 501, 492, 493, 502, 493, 503, 502,
                493, 494, 503, 494, 504, 503, 494, 495, 504, 495, 505, 504, 495, 496, 505, 496, 506, 505,
                496, 497, 506, 497, 507, 506, 497, 498, 507, 498, 508, 507, 498, 499, 508, 499, 509, 508,
                499, 500, 509, 500, 510, 509, 500, 491, 510, 491, 501, 510, 501, 502, 511, 502, 512, 511,
                502, 503, 512, 503, 513, 512, 503, 504, 513, 504, 514, 513, 504, 505, 514, 505, 515, 514,
                505, 506, 515, 506, 516, 515, 506, 507, 516, 507, 517, 516, 507, 508, 517, 508, 518, 517,
                508, 509, 518, 509, 519, 518, 509, 510, 519, 510, 520, 519, 510, 501, 520, 501, 511, 520,
                511, 512, 521, 512, 522, 521, 512, 513, 522, 513, 523, 522, 513, 514, 523, 514, 524, 523,
                514, 515, 524, 515, 525, 524, 515, 516, 525, 516, 526, 525, 516, 517, 526, 517, 527, 526,
                517, 518, 527, 518, 528, 527, 518, 519, 528, 519, 529, 528, 519, 520, 529, 520, 530, 529,
                520, 511, 530, 511, 521, 530, 521, 522, 531, 522, 523, 531, 523, 524, 531, 524, 525, 531,
                525, 526, 531, 526, 527, 531, 527, 528, 531, 528, 529, 531, 529, 530, 531, 530, 521, 531,
                532, 533, 534, 533, 535, 534, 536, 537, 538, 537, 539, 538, 536, 538, 534, 538, 532, 534,
                539, 537, 533, 537, 535, 533, 538, 539, 532, 539, 533, 532, 534, 535, 536, 535, 537, 536,
                540, 542, 541, 540, 543, 542, 540, 544, 543, 540, 545, 544, 540, 546, 545, 540, 547, 546,
                540, 548, 547, 540, 549, 548, 540, 550, 549, 540, 541, 550, 541, 542, 551, 542, 552, 551,
                542, 543, 552, 543, 553, 552, 543, 544, 553, 544, 554, 553, 544, 545, 554, 545, 555, 554,
                545, 546, 555, 546, 556, 555, 546, 547, 556, 547, 557, 556, 547, 548, 557, 548, 558, 557,
                548, 549, 558, 549, 559, 558, 549, 550, 559, 550, 560, 559, 550, 541, 560, 541, 551, 560,
                551, 552, 561, 552, 562, 561, 552, 553, 562, 553, 563, 562, 553, 554, 563, 554, 564, 563,
                554, 555, 564, 555, 565, 564, 555, 556, 565, 556, 566, 565, 556, 557, 566, 557, 567, 566,
                557, 558, 567, 558, 568, 567, 558, 559, 568, 559, 569, 568, 559, 560, 569, 560, 570, 569,
                560, 551, 570, 551, 561, 570, 561, 562, 571, 562, 572, 571, 562, 563, 572, 563, 573, 572,
                563, 564, 573, 564, 574, 573, 564, 565, 574, 565, 575, 574, 565, 566, 575, 566, 576, 575,
                566, 567, 576, 567, 577, 576, 567, 568, 577, 568, 578, 577, 568, 569, 578, 569, 579, 578,
                569, 570, 579, 570, 580, 579, 570, 561, 580, 561, 571, 580, 571, 572, 581, 572, 582, 581,
                572, 573, 582, 573, 583, 582, 573, 574, 583, 574, 584, 583, 574, 575, 584, 575, 585, 584,
                575, 576, 585, 576, 586, 585, 576, 577, 586, 577, 587, 586, 577, 578, 587, 578, 588, 587,
                578, 579, 588, 579, 589, 588, 579, 580, 589, 580, 590, 589, 580, 571, 590, 571, 581, 590,
                581, 582, 591, 582, 592, 591, 582, 583, 592, 583, 593, 592, 583, 584, 593, 584, 594, 593,
                584, 585, 594, 585, 595, 594, 585, 586, 595, 586, 596, 595, 586, 587, 596, 587, 597, 596,
                587, 588, 597, 588, 598, 597, 588, 589, 598, 589, 599, 598, 589, 590, 599, 590, 600, 599,
                590, 581, 600, 581, 591, 600, 591, 592, 601, 592, 602, 601, 592, 593, 602, 593, 603, 602,
                593, 594, 603, 594, 604, 603, 594, 595, 604, 595, 605, 604, 595, 596, 605, 596, 606, 605,
                596, 597, 606, 597, 607, 606, 597, 598, 607, 598, 608, 607, 598, 599, 608, 599, 609, 608,
                599, 600, 609, 600, 610, 609, 600, 591, 610, 591, 601, 610, 601, 602, 611, 602, 612, 611,
                602, 603, 612, 603, 613, 612, 603, 604, 613, 604, 614, 613, 604, 605, 614, 605, 615, 614,
                605, 606, 615, 606, 616, 615, 606, 607, 616, 607, 617, 616, 607, 608, 617, 608, 618, 617,
                608, 609, 618, 609, 619, 618, 609, 610, 619, 610, 620, 619, 610, 601, 620, 601, 611, 620,
                611, 612, 621, 612, 613, 621, 613, 614, 621, 614, 615, 621, 615, 616, 621, 616, 617, 621,
                617, 618, 621, 618, 619, 621, 619, 620, 621, 620, 611, 621, 622, 624, 623, 622, 625, 624,
                622, 626, 625, 622, 627, 626, 622, 628, 627, 622, 629, 628, 622, 630, 629, 622, 631, 630,
                622, 632, 631, 622, 623, 632, 623, 624, 633, 624, 634, 633, 624, 625, 634, 625, 635, 634,
                625, 626, 635, 626, 636, 635, 626, 627, 636, 627, 637, 636, 627, 628, 637, 628, 638, 637,
                628, 629, 638, 629, 639, 638, 629, 630, 639, 630, 640, 639, 630, 631, 640, 631, 641, 640,
                631, 632, 641, 632, 642, 641, 632, 623, 642, 623, 633, 642, 633, 634, 643, 634, 644, 643,
                634, 635, 644, 635, 645, 644, 635, 636, 645, 636, 646, 645, 636, 637, 646, 637, 647, 646,
                637, 638, 647, 638, 648, 647, 638, 639, 648, 639, 649, 648, 639, 640, 649, 640, 650, 649,
                640, 641, 650, 641, 651, 650, 641, 642, 651, 642, 652, 651, 642, 633, 652, 633, 643, 652,
                643, 644, 653, 644, 654, 653, 644, 645, 654, 645, 655, 654, 645, 646, 655, 646, 656, 655,
                646, 647, 656, 647, 657, 656, 647, 648, 657, 648, 658, 657, 648, 649, 658, 649, 659, 658,
                649, 650, 659, 650, 660, 659, 650, 651, 660, 651, 661, 660, 651, 652, 661, 652, 662, 661,
                652, 643, 662, 643, 653, 662, 653, 654, 663, 654, 664, 663, 654, 655, 664, 655, 665, 664,
                655, 656, 665, 656, 666, 665, 656, 657, 666, 657, 667, 666, 657, 658, 667, 658, 668, 667,
                658, 659, 668, 659, 669, 668, 659, 660, 669, 660, 670, 669, 660, 661, 670, 661, 671, 670,
                661, 662, 671, 662, 672, 671, 662, 653, 672, 653, 663, 672, 663, 664, 673, 664, 674, 673,
                664, 665, 674, 665, 675, 674, 665, 666, 675, 666, 676, 675, 666, 667, 676, 667, 677, 676,
                667, 668, 677, 668, 678, 677, 668, 669, 678, 669, 679, 678, 669, 670, 679, 670, 680, 679,
                670, 671, 680, 671, 681, 680, 671, 672, 681, 672, 682, 681, 672, 663, 682, 663, 673, 682,
                673, 674, 683, 674, 684, 683, 674, 675, 684, 675, 685, 684, 675, 676, 685, 676, 686, 685,
                676, 677, 686, 677, 687, 686, 677, 678, 687, 678, 688, 687, 678, 679, 688, 679, 689, 688,
                679, 680, 689, 680, 690, 689, 680, 681, 690, 681, 691, 690, 681, 682, 691, 682, 692, 691,
                682, 673, 692, 673, 683, 692, 683, 684, 693, 684, 694, 693, 684, 685, 694, 685, 695, 694,
                685, 686, 695, 686, 696, 695, 686, 687, 696, 687, 697, 696, 687, 688, 697, 688, 698, 697,
                688, 689, 698, 689, 699, 698, 689, 690, 699, 690, 700, 699, 690, 691, 700, 691, 701, 700,
                691, 692, 701, 692, 702, 701, 692, 683, 702, 683, 693, 702, 693, 694, 703, 694, 695, 703,
                695, 696, 703, 696, 697, 703, 697, 698, 703, 698, 699, 703, 699, 700, 703, 700, 701, 703,
                701, 702, 703, 702, 693, 703, 704, 705, 706, 705, 707, 706, 708, 709, 710, 709, 711, 710,
                708, 710, 706, 710, 704, 706, 711, 709, 705, 709, 707, 705, 710, 711, 704, 711, 705, 704,
                706, 707, 708, 707, 709, 708
            ]
        }
        def Mesh "Head"
        {
            uniform token subdivisionScheme = "none"
            point3f[] points = [
                (0, 1.495, 0), (-0.02105, 1.49919, 0), (-0.01703, 1.49919, 0.01237), (-0.0065, 1.49919, 0.02002),
                (0.0065, 1.49919, 0.02002), (0.01703, 1.49919, 0.01237), (0.02105, 1.49919, 0), (0.01703, 1.49919, -0.01237),
                (0.0065, 1.49919, -0.02002), (-0.0065, 1.49919, -0.02002), (-0.01703, 1.49919, -0.01237), (-0.03889, 1.51111, 0),
                (-0.03146, 1.51111, 0.02286), (-0.01202, 1.51111, 0.03699), (0.01202, 1.51111, 0.03699), (0.03146, 1.51111, 0.02286),
                (0.03889, 1.51111, 0), (0.03146, 1.51111, -0.02286), (0.01202, 1.51111, -0.03699), (-0.01202, 1.51111, -0.03699),
                (-0.03146, 1.51111, -0.02286), (-0.05081, 1.52895, 0), (-0.04111, 1.52895, 0.02987), (-0.0157, 1.52895, 0.04833),
                (0.0157, 1.52895, 0.04833), (0.04111, 1.52895, 0.02987), (0.05081, 1.52895, 0), (0.04111, 1.52895, -0.02987),
                (0.0157, 1.52895, -0.04833), (-0.0157, 1.52895, -0.04833), (-0.04111, 1.52895, -0.02987), (-0.055, 1.55, 0),
                (-0.0445, 1.55, 0.03233), (-0.017, 1.55, 0.05231), (0.017, 1.55, 0.05231), (0.0445, 1.55, 0.03233),
                (0.055, 1.55, 0), (0.0445, 1.55, -0.03233), (0.017, 1.55, -0.05231), (-0.017, 1.55, -0.05231),
                (-0.0445, 1.55, -0.03233), (-0.055, 1.61, 0), (-0.0445, 1.61, 0.03233), (-0.017, 1.61, 0.05231),
                (0.017, 1.61, 0.05231), (0.0445, 1.61, 0.03233), (0.055, 1.61, 0), (0.0445, 1.61, -0.03233),
                (0.017, 1.61, -0.05231), (-0.017, 1.61, -0.05231), (-0.0445, 1.61, -0.03233), (-0.05081, 1.63105, 0),
                (-0.04111, 1.63105, 0.02987), (-0.0157, 1.63105, 0.04833), (0.0157, 1.63105, 0.04833), (0.04111, 1.63105, 0.02987),
                (0.05081, 1.63105, 0), (0.04111, 1.63105, -0.02987), (0.0157, 1.63105, -0.04833), (-0.0157, 1.63105, -0.04833),
                (-0.04111, 1.63105, -0.02987), (-0.03889, 1.64889, 0), (-0.03146, 1.64889, 0.02286), (-0.01202, 1.64889, 0.03699),
                (0.01202, 1.64889, 0.03699), (0.03146, 1.64889, 0.02286), (0.03889, 1.64889, 0), (0.03146, 1.64889, -0.02286),
                (0.01202, 1.64889, -0.03699), (-0.01202, 1.64889, -0.03699), (-0.03146, 1.64889, -0.02286), (-0.02105, 1.66081, 0),
                (-0.01703, 1.66081, 0.01237), (-0.0065, 1.66081, 0.02002), (0.0065, 1.66081, 0.02002), (0.01703, 1.66081, 0.01237),
                (0.02105, 1.66081, 0), (0.01703, 1.66081, -0.01237), (0.0065, 1.66081, -0.02002), (-0.0065, 1.66081, -0.02002),
                (-0.01703, 1.66081, -0.01237), (0, 1.665, 0), (0, 1.83075, 0.005), (-0.03245, 1.82484, 0.005),
                (-0.02923, 1.82484, 0.01908), (-0.02023, 1.82484, 0.03037), (-0.00722, 1.82484, 0.03663), (0.00722, 1.82484, 0.03663),
                (0.02023, 1.82484, 0.03037), (0.02923, 1.82484, 0.01908), (0.03245, 1.82484, 0.005), (0.02923, 1.82484, -0.00908),
                (0.02023, 1.82484, -0.02037), (0.00722, 1.82484, -0.02663), (-0.00722, 1.82484, -0.02663), (-0.02023, 1.82484, -0.02037),
                (-0.02923, 1.82484, -0.00908), (-0.05561, 1.80769, 0.03178), (-0.06172, 1.80769, 0.005), (-0.03848, 1.80769, 0.05325),
                (-0.01373, 1.80769, 0.06517), (0.01373, 1.80769, 0.06517), (0.03848, 1.80769, 0.05325), (0.05561, 1.80769, 0.03178),
                (0.06172, 1.80769, 0.005), (0.05561, 1.80769, -0.02178), (0.03848, 1.80769, -0.04325), (0.01373, 1.80769, -0.05517),
                (-0.01373, 1.80769, -0.05517), (-0.03848, 1.80769, -0.04325), (-0.05561, 1.80769, -0.02178), (-0.07653, 1.78098, 0.04186),
                (-0.08495, 1.78098, 0.005), (-0.05296, 1.78098, 0.07141), (-0.0189, 1.78098, 0.08782), (0.0189, 1.78098, 0.08782),
                (0.05296, 1.78098, 0.07141), (0.07653, 1.78098, 0.04186), (0.08495, 1.78098, 0.005), (0.07653, 1.78098, -0.03186),
                (0.05296, 1.78098, -0.06141), (0.0189, 1.78098, -0.07782), (-0.0189, 1.78098, -0.07782), (-0.05296, 1.78098, -0.06141),
                (-0.07653, 1.78098, -0.03186), (-0.08997, 1.74731, 0.04833), (-0.09986, 1.74731, 0.005), (-0.06226, 1.74731, 0.08307),
                (-0.02222, 1.74731, 0.10236), (0.02222, 1.74731, 0.10236), (0.06226, 1.74731, 0.08307), (0.08997, 1.74731, 0.04833),
                (0.09986, 1.74731, 0.005), (0.08997, 1.74731, -0.03833), (0.06226, 1.74731, -0.07307), (0.02222, 1.74731, -0.09236),
                (-0.02222, 1.74731, -0.09236), (-0.06226, 1.74731, -0.07307), (-0.08997, 1.74731, -0.03833), (-0.0946, 1.71, 0.05056),
                (-0.105, 1.71, 0.005), (-0.06547, 1.71, 0.08709), (-0.02336, 1.71, 0.10737), (0.02336, 1.71, 0.10737),
                (0.06547, 1.71, 0.08709), (0.0946, 1.71, 0.05056), (0.105, 1.71, 0.005), (0.0946, 1.71, -0.04056),
                (0.06547, 1.71, -0.07709), (0.02336, 1.71, -0.09737), (-0.02336, 1.71, -0.09737), (-0.06547, 1.71, -0.07709),
                (-0.0946, 1.71, -0.04056), (-0.08997, 1.67269, 0.04833), (-0.09986, 1.67269, 0.005), (-0.06226, 1.67269, 0.08307),
                (-0.02222, 1.67269, 0.10236), (0.02222, 1.67269, 0.10236), (0.06226, 1.67269, 0.08307), (0.08997, 1.67269, 0.04833),
                (0.09986, 1.67269, 0.005), (0.08997, 1.67269, -0.03833), (0.06226, 1.67269, -0.07307), (0.02222, 1.67269, -0.09236),
                (-0.02222, 1.67269, -0.09236), (-0.06226, 1.67269, -0.07307), (-0.08997, 1.67269, -0.03833), (-0.07653, 1.63902, 0.04186),
                (-0.08495, 1.63902, 0.005), (-0.05296, 1.63902, 0.07141), (-0.0189, 1.63902, 0.08782), (0.0189, 1.63902, 0.08782),
                (0.05296, 1.63902, 0.07141), (0.07653, 1.63902, 0.04186), (0.08495, 1.63902, 0.005), (0.07653, 1.63902, -0.03186),
                (0.05296, 1.63902, -0.06141), (0.0189, 1.63902, -0.07782), (-0.0189, 1.63902, -0.07782), (-0.05296, 1.63902, -0.06141),
                (-0.07653, 1.63902, -0.03186), (-0.05561, 1.61231, 0.03178), (-0.06172, 1.61231, 0.005), (-0.03848, 1.61231, 0.05325),
                (-0.01373, 1.61231, 0.06517), (0.01373, 1.61231, 0.06517), (0.03848, 1.61231, 0.05325), (0.05561, 1.61231, 0.03178),
                (0.06172, 1.61231, 0.005), (0.05561, 1.61231, -0.02178), (0.03848, 1.61231, -0.04325), (0.01373, 1.61231, -0.05517),
                (-0.01373, 1.61231, -0.05517), (-0.03848, 1.61231, -0.04325), (-0.05561, 1.61231, -0.02178), (-0.02923, 1.59516, 0.01908),
                (-0.03245, 1.59516, 0.005), (-0.02023, 1.59516, 0.03037), (-0.00722, 1.59516, 0.03663), (0.00722, 1.59516, 0.03663),
                (0.02023, 1.59516, 0.03037), (0.02923, 1.59516, 0.01908), (0.03245, 1.59516, 0.005), (0.02923, 1.59516, -0.00908),
                (0.02023, 1.59516, -0.02037), (0.00722, 1.59516, -0.02663), (-0.00722, 1.59516, -0.02663), (-0.02023, 1.59516, -0.02037),
                (-0.02923, 1.59516, -0.00908), (0, 1.58925, 0.005), (0.065, 1.71, 0.12), (0.065, 1.62, 0.12),
                (0.065, 1.71, 0.06), (0.065, 1.62, 0.06), (-0.065, 1.71, 0.06), (-0.065, 1.62, 0.06),
                (-0.065, 1.71, 0.12), (-0.065, 1.62, 0.12)
            ]
            int[] faceVertexCounts = [
                3, 3, 3, 3, 3, 3, 3, 3, 3, 3, 3, 3, 3, 3, 3, 3, 3, 3, 3, 3, 3, 3, 3, 3,
                3, 3, 3, 3, 3, 3, 3, 3, 3, 3, 3, 3, 3, 3, 3, 3, 3, 3, 3, 3, 3, 3, 3, 3,
                3, 3, 3, 3, 3, 3, 3, 3, 3, 3, 3, 3, 3, 3, 3, 3, 3, 3, 3, 3, 3, 3, 3, 3,
                3, 3, 3, 3, 3, 3, 3, 3, 3, 3, 3, 3, 3, 3, 3, 3, 3, 3, 3, 3, 3, 3, 3, 3,
                3, 3, 3, 3, 3, 3, 3, 3, 3, 3, 3, 3, 3, 3, 3, 3, 3, 3, 3, 3, 3, 3, 3, 3,
                3, 3, 3, 3, 3, 3, 3, 3, 3, 3, 3, 3, 3, 3, 3, 3, 3, 3, 3, 3, 3, 3, 3, 3,
                3, 3, 3, 3, 3, 3, 3, 3, 3, 3, 3, 3, 3, 3, 3, 3, 3, 3, 3, 3, 3, 3, 3, 3,
                3, 3, 3, 3, 3, 3, 3, 3, 3, 3, 3, 3, 3, 3, 3, 3, 3, 3, 3, 3, 3, 3, 3, 3,
                3, 3, 3, 3, 3, 3, 3, 3, 3, 3, 3, 3, 3, 3, 3, 3, 3, 3, 3, 3, 3, 3, 3, 3,
                3, 3, 3, 3, 3, 3, 3, 3, 3, 3, 3, 3, 3, 3, 3, 3, 3, 3, 3, 3, 3, 3, 3, 3,
                3, 3, 3, 3, 3, 3, 3, 3, 3, 3, 3, 3, 3, 3, 3, 3, 3, 3, 3, 3, 3, 3, 3, 3,
                3, 3, 3, 3, 3, 3, 3, 3, 3, 3, 3, 3, 3, 3, 3, 3, 3, 3, 3, 3, 3, 3, 3, 3,
                3, 3, 3, 3, 3, 3, 3, 3, 3, 3, 3, 3, 3, 3, 3, 3, 3, 3, 3, 3, 3, 3, 3, 3,
                3, 3, 3, 3, 3, 3, 3, 3, 3, 3, 3, 3, 3, 3, 3, 3, 3, 3, 3, 3, 3, 3, 3, 3,
                3, 3, 3, 3, 3, 3, 3, 3, 3, 3, 3, 3, 3, 3, 3, 3, 3, 3, 3, 3, 3, 3, 3, 3,
                3, 3, 3, 3, 3, 3, 3, 3, 3, 3, 3, 3, 3, 3, 3, 3, 3, 3, 3, 3, 3, 3, 3, 3,
                3, 3, 3, 3, 3, 3, 3, 3, 3, 3, 3, 3, 3, 3, 3, 3, 3, 3, 3, 3, 3, 3, 3, 3,
                3, 3, 3, 3, 3, 3, 3, 3, 3, 3, 3, 3, 3, 3, 3, 3
            ]
            int[] faceVertexIndices = [
                0, 2, 1, 0, 3, 2, 0, 4, 3, 0, 5, 4, 0, 6, 5, 0, 7, 6,
                0, 8, 7, 0, 9, 8, 0, 10, 9, 0, 1, 10, 1, 2, 11, 2, 12, 11,
                2, 3, 12, 3, 13, 12, 3, 4, 13, 4, 14, 13, 4, 5, 14, 5, 15, 14,
                5, 6, 15, 6, 16, 15, 6, 7, 16, 7, 17, 16, 7, 8, 17, 8, 18, 17,
                8, 9, 18, 9, 19, 18, 9, 10, 19, 10, 20, 19, 10, 1, 20, 1, 11, 20,
                11, 12, 21, 12, 22, 21, 12, 13, 22, 13, 23, 22, 13, 14, 23, 14, 24, 23,
                14, 15, 24, 15, 25, 24, 15, 16, 25, 16, 26, 25, 16, 17, 26, 17, 27, 26,
                17, 18, 27, 18, 28, 27, 18, 19, 28, 19, 29, 28, 19, 20, 29, 20, 30, 29,
                20, 11, 30, 11, 21, 30, 21, 22, 31, 22, 32, 31, 22, 23, 32, 23, 33, 32,
                23, 24, 33, 24, 34, 33, 24, 25, 34, 25, 35, 34, 25, 26, 35, 26, 36, 35,
                26, 27, 36, 27, 37, 36, 27, 28, 37, 28, 38, 37, 28, 29, 38, 29, 39, 38,
                29, 30, 39, 30, 40, 39, 30, 21, 40, 21, 31, 40, 31, 32, 41, 32, 42, 41,
                32, 33, 42, 33, 43, 42, 33, 34, 43, 34, 44, 43, 34, 35, 44, 35, 45, 44,
                35, 36, 45, 36, 46, 45, 36, 37, 46, 37, 47, 46, 37, 38, 47, 38, 48, 47,
                38, 39, 48, 39, 49, 48, 39, 40, 49, 40, 50, 49, 40, 31, 50, 31, 41, 50,
                41, 42, 51, 42, 52, 51, 42, 43, 52, 43, 53, 52, 43, 44, 53, 44, 54, 53,
                44, 45, 54, 45, 55, 54, 45, 46, 55, 46, 56, 55, 46, 47, 56, 47, 57, 56,
                47, 48, 57, 48, 58, 57, 48, 49, 58, 49, 59, 58, 49, 50, 59, 50, 60, 59,
                50, 41, 60, 41, 51, 60, 51, 52, 61, 52, 62, 61, 52, 53, 62, 53, 63, 62,
                53, 54, 63, 54, 64, 63, 54, 55, 64, 55, 65, 64, 55, 56, 65, 56, 66, 65,
                56, 57, 66, 57, 67, 66, 57, 58, 67, 58, 68, 67, 58, 59, 68, 59, 69, 68,
                59, 60, 69, 60, 70, 69, 60, 51, 70, 51, 61, 70, 61, 62, 71, 62, 72, 71,
                62, 63, 72, 63, 73, 72, 63, 64, 73, 64, 74, 73, 64, 65, 74, 65, 75, 74,
                65, 66, 75, 66, 76, 75, 66, 67, 76, 67, 77, 76, 67, 68, 77, 68, 78, 77,
                68, 69, 78, 69, 79, 78, 69, 70, 79, 70, 80, 79, 70, 61, 80, 61, 71, 80,
                71, 72, 81, 72, 73, 81, 73, 74, 81, 74, 75, 81, 75, 76, 81, 76, 77, 81,
                77, 78, 81, 78, 79, 81, 79, 80, 81, 80, 71, 81, 82, 83, 84, 82, 84, 85,
                82, 85, 86, 82, 86, 87, 82, 87, 88, 82, 88, 89, 82, 89, 90, 82, 90, 91,
                82, 91, 92, 82, 92, 93, 82, 93, 94, 82, 94, 95, 82, 95, 96, 82, 96, 83,
                84, 83, 97, 83, 98, 97, 85, 84, 99, 84, 97, 99, 86, 85, 100, 85, 99, 100,
                87, 86, 101, 86, 100, 101, 88, 87, 102, 87, 101, 102, 89, 88, 103, 88, 102, 103,
                90, 89, 104, 89, 103, 104, 91, 90, 105, 90, 104, 105, 92, 91, 106, 91, 105, 106,
                93, 92, 107, 92, 106, 107, 94, 93, 108, 93, 107, 108, 95, 94, 109, 94, 108, 109,
                96, 95, 110, 95, 109, 110, 83, 96, 98, 96, 110, 98, 97, 98, 111, 98, 112, 111,
                99, 97, 113, 97, 111, 113, 100, 99, 114, 99, 113, 114, 101, 100, 115, 100, 114, 115,
                102, 101, 116, 101, 115, 116, 103, 102, 117, 102, 116, 117, 104, 103, 118, 103, 117, 118,
                105, 104, 119, 104, 118, 119, 106, 105, 120, 105, 119, 120, 107, 106, 121, 106, 120, 121,
                108, 107, 122, 107, 121, 122, 109, 108, 123, 108, 122, 123, 110, 109, 124, 109, 123, 124,
                98, 110, 112, 110, 124, 112, 111, 112, 125, 112, 126, 125, 113, 111, 127, 111, 125, 127,
                114, 113, 128, 113, 127, 128, 115, 114, 129, 114, 128, 129, 116, 115, 130, 115, 129, 130,
                117, 116, 131, 116, 130, 131, 118, 117, 132, 117, 131, 132, 119, 118, 133, 118, 132, 133,
                120, 119, 134, 119, 133, 134, 121, 120, 135, 120, 134, 135, 122, 121, 136, 121, 135, 136,
                123, 122, 137, 122, 136, 137, 124, 123, 138, 123, 137, 138, 112, 124, 126, 124, 138, 126,
                125, 126, 139, 126, 140, 139, 127, 125, 141, 125, 139, 141, 128, 127, 142, 127, 141, 142,
                129, 128, 143, 128, 142, 143, 130, 129, 144, 129, 143, 144, 131, 130, 145, 130, 144, 145,
                132, 131, 146, 131, 145, 146, 133, 132, 147, 132, 146, 147, 134, 133, 148, 133, 147, 148,
                135, 134, 149, 134, 148, 149, 136, 135, 150, 135, 149, 150, 137, 136, 151, 136, 150, 151,
                138, 137, 152, 137, 151, 152, 126, 138, 140, 138, 152, 140, 139, 140, 153, 140, 154, 153,
                141, 139, 155, 139, 153, 155, 142, 141, 156, 141, 155, 156, 143, 142, 157, 142, 156, 157,
                144, 143, 158, 143, 157, 158, 145, 144, 159, 144, 158, 159, 146, 145, 160, 145, 159, 160,
                147, 146, 161, 146, 160, 161, 148, 147, 162, 147, 161, 162, 149, 148, 163, 148, 162, 163,
                150, 149, 164, 149, 163, 164, 151, 150, 165, 150, 164, 165, 152, 151, 166, 151, 165, 166,
                140, 152, 154, 152, 166, 154, 153, 154, 167, 154, 168, 167, 155, 153, 169, 153, 167, 169,
                156, 155, 170, 155, 169, 170, 157, 156, 171, 156, 170, 171, 158, 157, 172, 157, 171, 172,
                159, 158, 173, 158, 172, 173, 160, 159, 174, 159, 173, 174, 161, 160, 175, 160, 174, 175,
                162, 161, 176, 161, 175, 176, 163, 162, 177, 162, 176, 177, 164, 163, 178, 163, 177, 178,
                165, 164, 179, 164, 178, 179, 166, 165, 180, 165, 179, 180, 154, 166, 168, 166, 180, 168,
                167, 168, 181, 168, 182, 181, 169, 167, 183, 167, 181, 183, 170, 169, 184, 169, 183, 184,
                171, 170, 185, 170, 184, 185, 172, 171, 186, 171, 185, 186, 173, 172, 187, 172, 186, 187,
                174, 173, 188, 173, 187, 188, 175, 174, 189, 174, 188, 189, 176, 175, 190, 175, 189, 190,
                177, 176, 191, 176, 190, 191, 178, 177, 192, 177, 191, 192, 179, 178, 193, 178, 192, 193,
                180, 179, 194, 179, 193, 194, 168, 180, 182, 180, 194, 182, 181, 182, 195, 182, 196, 195,
                183, 181, 197, 181, 195, 197, 184, 183, 198, 183, 197, 198, 185, 184, 199, 184, 198, 199,
                186, 185, 200, 185, 199, 200, 187, 186, 201, 186, 200, 201, 188, 187, 202, 187, 201, 202,
                189, 188, 203, 188, 202, 203, 190, 189, 204, 189, 203, 204, 191, 190, 205, 190, 204, 205,
                192, 191, 206, 191, 205, 206, 193, 192, 207, 192, 206, 207, 194, 193, 208, 193, 207, 208,
                182, 194, 196, 194, 208, 196, 195, 196, 209, 197, 195, 209, 198, 197, 209, 199, 198, 209,
                200, 199, 209, 201, 200, 209, 202, 201, 209, 203, 202, 209, 204, 203, 209, 205, 204, 209,
                206, 205, 209, 207, 206, 209, 208, 207, 209, 196, 208, 209, 210, 211, 212, 211, 213, 212,
                214, 215, 216, 215, 217, 216, 214, 216, 212, 216, 210, 212, 217, 215, 211, 215, 213, 211,
                216, 217, 210, 217, 211, 210, 212, 213, 214, 213, 215, 214
            ]
        }
    }
}
