#usda 1.0
(
    defaultPrim = "Character"
    metersPerUnit = 1
    upAxis = "Y"
    doc = "Riser stock asset: quadruped blockout. Generated by tools/make-stock-assets.mjs - do not edit by hand."
)

def Xform "Character"
{
    def Scope "Geom"
    {
        def Mesh "Body"
        {
            uniform token subdivisionScheme = "none"
            point3f[] points = [
                (0.13, 0.82, 0.43), (0.13, 0.5, 0.43), (0.13, 0.82, -0.43), (0.13, 0.5, -0.43),
                (-0.13, 0.82, -0.43), (-0.13, 0.5, -0.43), (-0.13, 0.82, 0.43), (-0.13, 0.5, 0.43),
                (0.12, 0.83, -0.4), (0.12, 0.57, -0.4), (0.12, 0.83, -0.6), (0.12, 0.57, -0.6),
                (-0.12, 0.83, -0.6), (-0.12, 0.57, -0.6), (-0.12, 0.83, -0.4), (-0.12, 0.57, -0.4),
                (0.11, 0.275, 0.32), (0.09278, 0.27843, 0.32), (0.09607, 0.27843, 0.33012), (0.10468, 0.27843, 0.33638),
                (0.11532, 0.27843, 0.33638), (0.12393, 0.27843, 0.33012), (0.12722, 0.27843, 0.32), (0.12393, 0.27843, 0.30988),
                (0.11532, 0.27843, 0.30362), (0.10468, 0.27843, 0.30362), (0.09607, 0.27843, 0.30988), (0.07818, 0.28818, 0.32),
                (0.08426, 0.28818, 0.3387), (0.10017, 0.28818, 0.35026), (0.11983, 0.28818, 0.35026), (0.13574, 0.28818, 0.3387),
                (0.14182, 0.28818, 0.32), (0.13574, 0.28818, 0.3013), (0.11983, 0.28818, 0.28974), (0.10017, 0.28818, 0.28974),
                (0.08426, 0.28818, 0.3013), (0.06843, 0.30278, 0.32), (0.07637, 0.30278, 0.34444), (0.09715, 0.30278, 0.35954),
                (0.12285, 0.30278, 0.35954), (0.14363, 0.30278, 0.34444), (0.15157, 0.30278, 0.32), (0.14363, 0.30278, 0.29556),
                (0.12285, 0.30278, 0.28046), (0.09715, 0.30278, 0.28046), (0.07637, 0.30278, 0.29556), (0.065, 0.32, 0.32),
                (0.07359, 0.32, 0.34645), (0.09609, 0.32, 0.3628), (0.12391, 0.32, 0.3628), (0.14641, 0.32, 0.34645),
                (0.155, 0.32, 0.32), (0.14641, 0.32, 0.29355), (0.12391, 0.32, 0.2772), (0.09609, 0.32, 0.2772),
                (0.07359, 0.32, 0.29355), (0.065, 0.52, 0.32), (0.07359, 0.52, 0.34645), (0.09609, 0.52, 0.3628),
                (0.12391, 0.52, 0.3628), (0.14641, 0.52, 0.34645), (0.155, 0.52, 0.32), (0.14641, 0.52, 0.29355),
                (0.12391, 0.52, 0.2772), (0.09609, 0.52, 0.2772), (0.07359, 0.52, 0.29355), (0.06843, 0.53722, 0.32),
                (0.07637, 0.53722, 0.34444), (0.09715, 0.53722, 0.35954), (0.12285, 0.53722, 0.35954), (0.14363, 0.53722, 0.34444),
                (0.15157, 0.53722, 0.32), (0.14363, 0.53722, 0.29556), (0.12285, 0.53722, 0.28046), (0.09715, 0.53722, 0.28046),
                (0.07637, 0.53722, 0.29556), (0.07818, 0.55182, 0.32), (0.08426, 0.55182, 0.3387), (0.10017, 0.55182, 0.35026),
                (0.11983, 0.55182, 0.35026), (0.13574, 0.55182, 0.3387), (0.14182, 0.55182, 0.32), (0.13574, 0.55182, 0.3013),
                (0.11983, 0.55182, 0.28974), (0.10017, 0.55182, 0.28974), (0.08426, 0.55182, 0.3013), (0.09278, 0.56157, 0.32),
                (0.09607, 0.56157, 0.33012), (0.10468, 0.56157, 0.33638), (0.11532, 0.56157, 0.33638), (0.12393, 0.56157, 0.33012),
                (0.12722, 0.56157, 0.32), (0.12393, 0.56157, 0.30988), (0.11532, 0.56157, 0.30362), (0.10468, 0.56157, 0.30362),
                (0.09607, 0.56157, 0.30988), (0.11, 0.565, 0.32), (0.11, 0.042, 0.32), (0.09546, 0.04489, 0.32),
                (0.09824, 0.04489, 0.32855), (0.10551, 0.04489, 0.33383), (0.11449, 0.04489, 0.33383), (0.12176, 0.04489, 0.32855),
                (0.12454, 0.04489, 0.32), (0.12176, 0.04489, 0.31145), (0.11449, 0.04489, 0.30617), (0.10551, 0.04489, 0.30617),
                (0.09824, 0.04489, 0.31145), (0.08313, 0.05313, 0.32), (0.08826, 0.05313, 0.33579), (0.1017, 0.05313, 0.34555),
                (0.1183, 0.05313, 0.34555), (0.13174, 0.05313, 0.33579), (0.13687, 0.05313, 0.32), (0.13174, 0.05313, 0.30421),
                (0.1183, 0.05313, 0.29445), (0.1017, 0.05313, 0.29445), (0.08826, 0.05313, 0.30421), (0.07489, 0.06546, 0.32),
                (0.0816, 0.06546, 0.34064), (0.09915, 0.06546, 0.35339), (0.12085, 0.06546, 0.35339), (0.1384, 0.06546, 0.34064),
                (0.14511, 0.06546, 0.32), (0.1384, 0.06546, 0.29936), (0.12085, 0.06546, 0.28661), (0.09915, 0.06546, 0.28661),
                (0.0816, 0.06546, 0.29936), (0.072, 0.08, 0.32), (0.07926, 0.08, 0.34234), (0.09826, 0.08, 0.35614),
                (0.12174, 0.08, 0.35614), (0.14074, 0.08, 0.34234), (0.148, 0.08, 0.32), (0.14074, 0.08, 0.29766),
                (0.12174, 0.08, 0.28386), (0.09826, 0.08, 0.28386), (0.07926, 0.08, 0.29766), (0.072, 0.26, 0.32),
                (0.07926, 0.26, 0.34234), (0.09826, 0.26, 0.35614), (0.12174, 0.26, 0.35614), (0.14074, 0.26, 0.34234),
                (0.148, 0.26, 0.32), (0.14074, 0.26, 0.29766), (0.12174, 0.26, 0.28386), (0.09826, 0.26, 0.28386),
                (0.07926, 0.26, 0.29766), (0.07489, 0.27454, 0.32), (0.0816, 0.27454, 0.34064), (0.09915, 0.27454, 0.35339),
                (0.12085, 0.27454, 0.35339), (0.1384, 0.27454, 0.34064), (0.14511, 0.27454, 0.32), (0.1384, 0.27454, 0.29936),
                (0.12085, 0.27454, 0.28661), (0.09915, 0.27454, 0.28661), (0.0816, 0.27454, 0.29936), (0.08313, 0.28687, 0.32),
                (0.08826, 0.28687, 0.33579), (0.1017, 0.28687, 0.34555), (0.1183, 0.28687, 0.34555), (0.13174, 0.28687, 0.33579),
                (0.13687, 0.28687, 0.32), (0.13174, 0.28687, 0.30421), (0.1183, 0.28687, 0.29445), (0.1017, 0.28687, 0.29445),
                (0.08826, 0.28687, 0.30421), (0.09546, 0.29511, 0.32), (0.09824, 0.29511, 0.32855), (0.10551, 0.29511, 0.33383),
                (0.11449, 0.29511, 0.33383), (0.12176, 0.29511, 0.32855), (0.12454, 0.29511, 0.32), (0.12176, 0.29511, 0.31145),
                (0.11449, 0.29511, 0.30617), (0.10551, 0.29511, 0.30617), (0.09824, 0.29511, 0.31145), (0.11, 0.298, 0.32),
                (0.15, 0.05, 0.42), (0.15, 0, 0.42), (0.15, 0.05, 0.28), (0.15, 0, 0.28),
                (0.07, 0.05, 0.28), (0.07, 0, 0.28), (0.07, 0.05, 0.42), (0.07, 0, 0.42),
                (-0.11, 0.275, 0.32), (-0.12722, 0.27843, 0.32), (-0.12393, 0.27843, 0.33012), (-0.11532, 0.27843, 0.33638),
                (-0.10468, 0.27843, 0.33638), (-0.09607, 0.27843, 0.33012), (-0.09278, 0.27843, 0.32), (-0.09607, 0.27843, 0.30988),
                (-0.10468, 0.27843, 0.30362), (-0.11532, 0.27843, 0.30362), (-0.12393, 0.27843, 0.30988), (-0.14182, 0.28818, 0.32),
                (-0.13574, 0.28818, 0.3387), (-0.11983, 0.28818, 0.35026), (-0.10017, 0.28818, 0.35026), (-0.08426, 0.28818, 0.3387),
                (-0.07818, 0.28818, 0.32), (-0.08426, 0.28818, 0.3013), (-0.10017, 0.28818, 0.28974), (-0.11983, 0.28818, 0.28974),
                (-0.13574, 0.28818, 0.3013), (-0.15157, 0.30278, 0.32), (-0.14363, 0.30278, 0.34444), (-0.12285, 0.30278, 0.35954),
                (-0.09715, 0.30278, 0.35954), (-0.07637, 0.30278, 0.34444), (-0.06843, 0.30278, 0.32), (-0.07637, 0.30278, 0.29556),
                (-0.09715, 0.30278, 0.28046), (-0.12285, 0.30278, 0.28046), (-0.14363, 0.30278, 0.29556), (-0.155, 0.32, 0.32),
                (-0.14641, 0.32, 0.34645), (-0.12391, 0.32, 0.3628), (-0.09609, 0.32, 0.3628), (-0.07359, 0.32, 0.34645),
                (-0.065, 0.32, 0.32), (-0.07359, 0.32, 0.29355), (-0.09609, 0.32, 0.2772), (-0.12391, 0.32, 0.2772),
                (-0.14641, 0.32, 0.29355), (-0.155, 0.52, 0.32), (-0.14641, 0.52, 0.34645), (-0.12391, 0.52, 0.3628),
                (-0.09609, 0.52, 0.3628), (-0.07359, 0.52, 0.34645), (-0.065, 0.52, 0.32), (-0.07359, 0.52, 0.29355),
                (-0.09609, 0.52, 0.2772), (-0.12391, 0.52, 0.2772), (-0.14641, 0.52, 0.29355), (-0.15157, 0.53722, 0.32),
                (-0.14363, 0.53722, 0.34444), (-0.12285, 0.53722, 0.35954), (-0.09715, 0.53722, 0.35954), (-0.07637, 0.53722, 0.34444),
                (-0.06843, 0.53722, 0.32), (-0.07637, 0.53722, 0.29556), (-0.09715, 0.53722, 0.28046), (-0.12285, 0.53722, 0.28046),
                (-0.14363, 0.53722, 0.29556), (-0.14182, 0.55182, 0.32), (-0.13574, 0.55182, 0.3387), (-0.11983, 0.55182, 0.35026),
                (-0.10017, 0.55182, 0.35026), (-0.08426, 0.55182, 0.3387), (-0.07818, 0.55182, 0.32), (-0.08426, 0.55182, 0.3013),
                (-0.10017, 0.55182, 0.28974), (-0.11983, 0.55182, 0.28974), (-0.13574, 0.55182, 0.3013), (-0.12722, 0.56157, 0.32),
                (-0.12393, 0.56157, 0.33012), (-0.11532, 0.56157, 0.33638), (-0.10468, 0.56157, 0.33638), (-0.09607, 0.56157, 0.33012),
                (-0.09278, 0.56157, 0.32), (-0.09607, 0.56157, 0.30988), (-0.10468, 0.56157, 0.30362), (-0.11532, 0.56157, 0.30362),
                (-0.12393, 0.56157, 0.30988), (-0.11, 0.565, 0.32), (-0.11, 0.042, 0.32), (-0.12454, 0.04489, 0.32),
                (-0.12176, 0.04489, 0.32855), (-0.11449, 0.04489, 0.33383), (-0.10551, 0.04489, 0.33383), (-0.09824, 0.04489, 0.32855),
                (-0.09546, 0.04489, 0.32), (-0.09824, 0.04489, 0.31145), (-0.10551, 0.04489, 0.30617), (-0.11449, 0.04489, 0.30617),
                (-0.12176, 0.04489, 0.31145), (-0.13687, 0.05313, 0.32), (-0.13174, 0.05313, 0.33579), (-0.1183, 0.05313, 0.34555),
                (-0.1017, 0.05313, 0.34555), (-0.08826, 0.05313, 0.33579), (-0.08313, 0.05313, 0.32), (-0.08826, 0.05313, 0.30421),
                (-0.1017, 0.05313, 0.29445), (-0.1183, 0.05313, 0.29445), (-0.13174, 0.05313, 0.30421), (-0.14511, 0.06546, 0.32),
                (-0.1384, 0.06546, 0.34064), (-0.12085, 0.06546, 0.35339), (-0.09915, 0.06546, 0.35339), (-0.0816, 0.06546, 0.34064),
                (-0.07489, 0.06546, 0.32), (-0.0816, 0.06546, 0.29936), (-0.09915, 0.06546, 0.28661), (-0.12085, 0.06546, 0.28661),
                (-0.1384, 0.06546, 0.29936), (-0.148, 0.08, 0.32), (-0.14074, 0.08, 0.34234), (-0.12174, 0.08, 0.35614),
                (-0.09826, 0.08, 0.35614), (-0.07926, 0.08, 0.34234), (-0.072, 0.08, 0.32), (-0.07926, 0.08, 0.29766),
                (-0.09826, 0.08, 0.28386), (-0.12174, 0.08, 0.28386), (-0.14074, 0.08, 0.29766), (-0.148, 0.26, 0.32),
                (-0.14074, 0.26, 0.34234), (-0.12174, 0.26, 0.35614), (-0.09826, 0.26, 0.35614), (-0.07926, 0.26, 0.34234),
                (-0.072, 0.26, 0.32), (-0.07926, 0.26, 0.29766), (-0.09826, 0.26, 0.28386), (-0.12174, 0.26, 0.28386),
                (-0.14074, 0.26, 0.29766), (-0.14511, 0.27454, 0.32), (-0.1384, 0.27454, 0.34064), (-0.12085, 0.27454, 0.35339),
                (-0.09915, 0.27454, 0.35339), (-0.0816, 0.27454, 0.34064), (-0.07489, 0.27454, 0.32), (-0.0816, 0.27454, 0.29936),
                (-0.09915, 0.27454, 0.28661), (-0.12085, 0.27454, 0.28661), (-0.1384, 0.27454, 0.29936), (-0.13687, 0.28687, 0.32),
                (-0.13174, 0.28687, 0.33579), (-0.1183, 0.28687, 0.34555), (-0.1017, 0.28687, 0.34555), (-0.08826, 0.28687, 0.33579),
                (-0.08313, 0.28687, 0.32), (-0.08826, 0.28687, 0.30421), (-0.1017, 0.28687, 0.29445), (-0.1183, 0.28687, 0.29445),
                (-0.13174, 0.28687, 0.30421), (-0.12454, 0.29511, 0.32), (-0.12176, 0.29511, 0.32855), (-0.11449, 0.29511, 0.33383),
                (-0.10551, 0.29511, 0.33383), (-0.09824, 0.29511, 0.32855), (-0.09546, 0.29511, 0.32), (-0.09824, 0.29511, 0.31145),
                (-0.10551, 0.29511, 0.30617), (-0.11449, 0.29511, 0.30617), (-0.12176, 0.29511, 0.31145), (-0.11, 0.298, 0.32),
                (-0.07, 0.05, 0.42), (-0.07, 0, 0.42), (-0.07, 0.05, 0.28), (-0.07, 0, 0.28),
                (-0.15, 0.05, 0.28), (-0.15, 0, 0.28), (-0.15, 0.05, 0.42), (-0.15, 0, 0.42),
                (0.11, 0.288, -0.42), (0.0901, 0.29196, -0.42), (0.0939, 0.29196, -0.4083), (0.10385, 0.29196, -0.40107),
                (0.11615, 0.29196, -0.40107), (0.1261, 0.29196, -0.4083), (0.1299, 0.29196, -0.42), (0.1261, 0.29196, -0.4317),
                (0.11615, 0.29196, -0.43893), (0.10385, 0.29196, -0.43893), (0.0939, 0.29196, -0.4317), (0.07323, 0.30323, -0.42),
                (0.08025, 0.30323, -0.39839), (0.09864, 0.30323, -0.38503), (0.12136, 0.30323, -0.38503), (0.13975, 0.30323, -0.39839),
                (0.14677, 0.30323, -0.42), (0.13975, 0.30323, -0.44161), (0.12136, 0.30323, -0.45497), (0.09864, 0.30323, -0.45497),
                (0.08025, 0.30323, -0.44161), (0.06196, 0.3201, -0.42), (0.07113, 0.3201, -0.39176), (0.09515, 0.3201, -0.37431),
                (0.12485, 0.3201, -0.37431), (0.14887, 0.3201, -0.39176), (0.15804, 0.3201, -0.42), (0.14887, 0.3201, -0.44824),
                (0.12485, 0.3201, -0.46569), (0.09515, 0.3201, -0.46569), (0.07113, 0.3201, -0.44824), (0.058, 0.34, -0.42),
                (0.06793, 0.34, -0.38944), (0.09393, 0.34, -0.37055), (0.12607, 0.34, -0.37055), (0.15207, 0.34, -0.38944),
                (0.162, 0.34, -0.42), (0.15207, 0.34, -0.45056), (0.12607, 0.34, -0.46945), (0.09393, 0.34, -0.46945),
                (0.06793, 0.34, -0.45056), (0.058, 0.54, -0.42), (0.06793, 0.54, -0.38944), (0.09393, 0.54, -0.37055),
                (0.12607, 0.54, -0.37055), (0.15207, 0.54, -0.38944), (0.162, 0.54, -0.42), (0.15207, 0.54, -0.45056),
                (0.12607, 0.54, -0.46945), (0.09393, 0.54, -0.46945), (0.06793, 0.54, -0.45056), (0.06196, 0.5599, -0.42),
                (0.07113, 0.5599, -0.39176), (0.09515, 0.5599, -0.37431), (0.12485, 0.5599, -0.37431), (0.14887, 0.5599, -0.39176),
                (0.15804, 0.5599, -0.42), (0.14887, 0.5599, -0.44824), (0.12485, 0.5599, -0.46569), (0.09515, 0.5599, -0.46569),
                (0.07113, 0.5599, -0.44824), (0.07323, 0.57677, -0.42), (0.08025, 0.57677, -0.39839), (0.09864, 0.57677, -0.38503),
                (0.12136, 0.57677, -0.38503), (0.13975, 0.57677, -0.39839), (0.14677, 0.57677, -0.42), (0.13975, 0.57677, -0.44161),
                (0.12136, 0.57677, -0.45497), (0.09864, 0.57677, -0.45497), (0.08025, 0.57677, -0.44161), (0.0901, 0.58804, -0.42),
                (0.0939, 0.58804, -0.4083), (0.10385, 0.58804, -0.40107), (0.11615, 0.58804, -0.40107), (0.1261, 0.58804, -0.4083),
                (0.1299, 0.58804, -0.42), (0.1261, 0.58804, -0.4317), (0.11615, 0.58804, -0.43893), (0.10385, 0.58804, -0.43893),
                (0.0939, 0.58804, -0.4317), (0.11, 0.592, -0.42), (0.11, 0.04, -0.36), (0.09469, 0.04304, -0.36),
                (0.09762, 0.04304, -0.351), (0.10527, 0.04304, -0.34544), (0.11473, 0.04304, -0.34544), (0.12238, 0.04304, -0.351),
                (0.12531, 0.04304, -0.36), (0.12238, 0.04304, -0.369), (0.11473, 0.04304, -0.37456), (0.10527, 0.04304, -0.37456),
                (0.09762, 0.04304, -0.369), (0.08172, 0.05172, -0.36), (0.08712, 0.05172, -0.34337), (0.10126, 0.05172, -0.3331),
                (0.11874, 0.05172, -0.3331), (0.13288, 0.05172, -0.34337), (0.13828, 0.05172, -0.36), (0.13288, 0.05172, -0.37663),
                (0.11874, 0.05172, -0.3869), (0.10126, 0.05172, -0.3869), (0.08712, 0.05172, -0.37663), (0.07304, 0.06469, -0.36),
                (0.0801, 0.06469, -0.33828), (0.09858, 0.06469, -0.32485), (0.12142, 0.06469, -0.32485), (0.1399, 0.06469, -0.33828),
                (0.14696, 0.06469, -0.36), (0.1399, 0.06469, -0.38172), (0.12142, 0.06469, -0.39515), (0.09858, 0.06469, -0.39515),
                (0.0801, 0.06469, -0.38172), (0.07, 0.08, -0.36), (0.07764, 0.08, -0.33649), (0.09764, 0.08, -0.32196),
                (0.12236, 0.08, -0.32196), (0.14236, 0.08, -0.33649), (0.15, 0.08, -0.36), (0.14236, 0.08, -0.38351),
                (0.12236, 0.08, -0.39804), (0.09764, 0.08, -0.39804), (0.07764, 0.08, -0.38351), (0.07, 0.28, -0.36),
                (0.07764, 0.28, -0.33649), (0.09764, 0.28, -0.32196), (0.12236, 0.28, -0.32196), (0.14236, 0.28, -0.33649),
                (0.15, 0.28, -0.36), (0.14236, 0.28, -0.38351), (0.12236, 0.28, -0.39804), (0.09764, 0.28, -0.39804),
                (0.07764, 0.28, -0.38351), (0.07304, 0.29531, -0.36), (0.0801, 0.29531, -0.33828), (0.09858, 0.29531, -0.32485),
                (0.12142, 0.29531, -0.32485), (0.1399, 0.29531, -0.33828), (0.14696, 0.29531, -0.36), (0.1399, 0.29531, -0.38172),
                (0.12142, 0.29531, -0.39515), (0.09858, 0.29531, -0.39515), (0.0801, 0.29531, -0.38172), (0.08172, 0.30828, -0.36),
                (0.08712, 0.30828, -0.34337), (0.10126, 0.30828, -0.3331), (0.11874, 0.30828, -0.3331), (0.13288, 0.30828, -0.34337),
                (0.13828, 0.30828, -0.36), (0.13288, 0.30828, -0.37663), (0.11874, 0.30828, -0.3869), (0.10126, 0.30828, -0.3869),
                (0.08712, 0.30828, -0.37663), (0.09469, 0.31696, -0.36), (0.09762, 0.31696, -0.351), (0.10527, 0.31696, -0.34544),
                (0.11473, 0.31696, -0.34544), (0.12238, 0.31696, -0.351), (0.12531, 0.31696, -0.36), (0.12238, 0.31696, -0.369),
                (0.11473, 0.31696, -0.37456), (0.10527, 0.31696, -0.37456), (0.09762, 0.31696, -0.369), (0.11, 0.32, -0.36),
                (0.15, 0.05, -0.265), (0.15, 0, -0.265), (0.15, 0.05, -0.415), (0.15, 0, -0.415),
                (0.07, 0.05, -0.415), (0.07, 0, -0.415), (0.07, 0.05, -0.265), (0.07, 0, -0.265),
                (-0.11, 0.288, -0.42), (-0.1299, 0.29196, -0.42), (-0.1261, 0.29196, -0.4083), (-0.11615, 0.29196, -0.40107),
                (-0.10385, 0.29196, -0.40107), (-0.0939, 0.29196, -0.4083), (-0.0901, 0.29196, -0.42), (-0.0939, 0.29196, -0.4317),
                (-0.10385, 0.29196, -0.43893), (-0.11615, 0.29196, -0.43893), (-0.1261, 0.29196, -0.4317), (-0.14677, 0.30323, -0.42),
                (-0.13975, 0.30323, -0.39839), (-0.12136, 0.30323, -0.38503), (-0.09864, 0.30323, -0.38503), (-0.08025, 0.30323, -0.39839),
                (-0.07323, 0.30323, -0.42), (-0.08025, 0.30323, -0.44161), (-0.09864, 0.30323, -0.45497), (-0.12136, 0.30323, -0.45497),
                (-0.13975, 0.30323, -0.44161), (-0.15804, 0.3201, -0.42), (-0.14887, 0.3201, -0.39176), (-0.12485, 0.3201, -0.37431),
                (-0.09515, 0.3201, -0.37431), (-0.07113, 0.3201, -0.39176), (-0.06196, 0.3201, -0.42), (-0.07113, 0.3201, -0.44824),
                (-0.09515, 0.3201, -0.46569), (-0.12485, 0.3201, -0.46569), (-0.14887, 0.3201, -0.44824), (-0.162, 0.34, -0.42),
                (-0.15207, 0.34, -0.38944), (-0.12607, 0.34, -0.37055), (-0.09393, 0.34, -0.37055), (-0.06793, 0.34, -0.38944),
                (-0.058, 0.34, -0.42), (-0.06793, 0.34, -0.45056), (-0.09393, 0.34, -0.46945), (-0.12607, 0.34, -0.46945),
                (-0.15207, 0.34, -0.45056), (-0.162, 0.54, -0.42), (-0.15207, 0.54, -0.38944), (-0.12607, 0.54, -0.37055),
                (-0.09393, 0.54, -0.37055), (-0.06793, 0.54, -0.38944), (-0.058, 0.54, -0.42), (-0.06793, 0.54, -0.45056),
                (-0.09393, 0.54, -0.46945), (-0.12607, 0.54, -0.46945), (-0.15207, 0.54, -0.45056), (-0.15804, 0.5599, -0.42),
                (-0.14887, 0.5599, -0.39176), (-0.12485, 0.5599, -0.37431), (-0.09515, 0.5599, -0.37431), (-0.07113, 0.5599, -0.39176),
                (-0.06196, 0.5599, -0.42), (-0.07113, 0.5599, -0.44824), (-0.09515, 0.5599, -0.46569), (-0.12485, 0.5599, -0.46569),
                (-0.14887, 0.5599, -0.44824), (-0.14677, 0.57677, -0.42), (-0.13975, 0.57677, -0.39839), (-0.12136, 0.57677, -0.38503),
                (-0.09864, 0.57677, -0.38503), (-0.08025, 0.57677, -0.39839), (-0.07323, 0.57677, -0.42), (-0.08025, 0.57677, -0.44161),
                (-0.09864, 0.57677, -0.45497), (-0.12136, 0.57677, -0.45497), (-0.13975, 0.57677, -0.44161), (-0.1299, 0.58804, -0.42),
                (-0.1261, 0.58804, -0.4083), (-0.11615, 0.58804, -0.40107), (-0.10385, 0.58804, -0.40107), (-0.0939, 0.58804, -0.4083),
                (-0.0901, 0.58804, -0.42), (-0.0939, 0.58804, -0.4317), (-0.10385, 0.58804, -0.43893), (-0.11615, 0.58804, -0.43893),
                (-0.1261, 0.58804, -0.4317), (-0.11, 0.592, -0.42), (-0.11, 0.04, -0.36), (-0.12531, 0.04304, -0.36),
                (-0.12238, 0.04304, -0.351), (-0.11473, 0.04304, -0.34544), (-0.10527, 0.04304, -0.34544), (-0.09762, 0.04304, -0.351),
                (-0.09469, 0.04304, -0.36), (-0.09762, 0.04304, -0.369), (-0.10527, 0.04304, -0.37456), (-0.11473, 0.04304, -0.37456),
                (-0.12238, 0.04304, -0.369), (-0.13828, 0.05172, -0.36), (-0.13288, 0.05172, -0.34337), (-0.11874, 0.05172, -0.3331),
                (-0.10126, 0.05172, -0.3331), (-0.08712, 0.05172, -0.34337), (-0.08172, 0.05172, -0.36), (-0.08712, 0.05172, -0.37663),
                (-0.10126, 0.05172, -0.3869), (-0.11874, 0.05172, -0.3869), (-0.13288, 0.05172, -0.37663), (-0.14696, 0.06469, -0.36),
                (-0.1399, 0.06469, -0.33828), (-0.12142, 0.06469, -0.32485), (-0.09858, 0.06469, -0.32485), (-0.0801, 0.06469, -0.33828),
                (-0.07304, 0.06469, -0.36), (-0.0801, 0.06469, -0.38172), (-0.09858, 0.06469, -0.39515), (-0.12142, 0.06469, -0.39515),
                (-0.1399, 0.06469, -0.38172), (-0.15, 0.08, -0.36), (-0.14236, 0.08, -0.33649), (-0.12236, 0.08, -0.32196),
                (-0.09764, 0.08, -0.32196), (-0.07764, 0.08, -0.33649), (-0.07, 0.08, -0.36), (-0.07764, 0.08, -0.38351),
                (-0.09764, 0.08, -0.39804), (-0.12236, 0.08, -0.39804), (-0.14236, 0.08, -0.38351), (-0.15, 0.28, -0.36),
                (-0.14236, 0.28, -0.33649), (-0.12236, 0.28, -0.32196), (-0.09764, 0.28, -0.32196), (-0.07764, 0.28, -0.33649),
                (-0.07, 0.28, -0.36), (-0.07764, 0.28, -0.38351), (-0.09764, 0.28, -0.39804), (-0.12236, 0.28, -0.39804),
                (-0.14236, 0.28, -0.38351), (-0.14696, 0.29531, -0.36), (-0.1399, 0.29531, -0.33828), (-0.12142, 0.29531, -0.32485),
                (-0.09858, 0.29531, -0.32485), (-0.0801, 0.29531, -0.33828), (-0.07304, 0.29531, -0.36), (-0.0801, 0.29531, -0.38172),
                (-0.09858, 0.29531, -0.39515), (-0.12142, 0.29531, -0.39515), (-0.1399, 0.29531, -0.38172), (-0.13828, 0.30828, -0.36),
                (-0.13288, 0.30828, -0.34337), (-0.11874, 0.30828, -0.3331), (-0.10126, 0.30828, -0.3331), (-0.08712, 0.30828, -0.34337),
                (-0.08172, 0.30828, -0.36), (-0.08712, 0.30828, -0.37663), (-0.10126, 0.30828, -0.3869), (-0.11874, 0.30828, -0.3869),
                (-0.13288, 0.30828, -0.37663), (-0.12531, 0.31696, -0.36), (-0.12238, 0.31696, -0.351), (-0.11473, 0.31696, -0.34544),
                (-0.10527, 0.31696, -0.34544), (-0.09762, 0.31696, -0.351), (-0.09469, 0.31696, -0.36), (-0.09762, 0.31696, -0.369),
                (-0.10527, 0.31696, -0.37456), (-0.11473, 0.31696, -0.37456), (-0.12238, 0.31696, -0.369), (-0.11, 0.32, -0.36),
                (-0.07, 0.05, -0.265), (-0.07, 0, -0.265), (-0.07, 0.05, -0.415), (-0.07, 0, -0.415),
                (-0.15, 0.05, -0.415), (-0.15, 0, -0.415), (-0.15, 0.05, -0.265), (-0.15, 0, -0.265),
                (0, 0.68397, -0.80773), (-0.01072, 0.68473, -0.80574), (-0.00867, 0.67884, -0.80351), (-0.00331, 0.6752, -0.80213),
                (0.00331, 0.6752, -0.80213), (0.00867, 0.67884, -0.80351), (0.01072, 0.68473, -0.80574), (0.00867, 0.69062, -0.80797),
                (0.00331, 0.69426, -0.80935), (-0.00331, 0.69426, -0.80935), (-0.00867, 0.69062, -0.80797), (-0.0198, 0.68688, -0.80006),
                (-0.01602, 0.676, -0.79594), (-0.00612, 0.66927, -0.79339), (0.00612, 0.66927, -0.79339), (0.01602, 0.676, -0.79594),
                (0.0198, 0.68688, -0.80006), (0.01602, 0.69776, -0.80419), (0.00612, 0.70449, -0.80674), (-0.00612, 0.70449, -0.80674),
                (-0.01602, 0.69776, -0.80419), (-0.02587, 0.6901, -0.79157), (-0.02093, 0.67588, -0.78618), (-0.00799, 0.6671, -0.78285),
                (0.00799, 0.6671, -0.78285), (0.02093, 0.67588, -0.78618), (0.02587, 0.6901, -0.79157), (0.02093, 0.70432, -0.79696),
                (0.00799, 0.71311, -0.8003), (-0.00799, 0.71311, -0.8003), (-0.02093, 0.70432, -0.79696), (-0.028, 0.6939, -0.78155),
                (-0.02265, 0.67851, -0.77572), (-0.00865, 0.669, -0.77211), (0.00865, 0.669, -0.77211), (0.02265, 0.67851, -0.77572),
                (0.028, 0.6939, -0.78155), (0.02265, 0.70929, -0.78739), (0.00865, 0.7188, -0.791), (-0.00865, 0.7188, -0.791),
                (-0.02265, 0.70929, -0.78739), (-0.028, 0.7861, -0.53845), (-0.02265, 0.77071, -0.53261), (-0.00865, 0.7612, -0.529),
                (0.00865, 0.7612, -0.529), (0.02265, 0.77071, -0.53261), (0.028, 0.7861, -0.53845), (0.02265, 0.80149, -0.54428),
                (0.00865, 0.811, -0.54789), (-0.00865, 0.811, -0.54789), (-0.02265, 0.80149, -0.54428), (-0.02587, 0.7899, -0.52843),
                (-0.02093, 0.77568, -0.52304), (-0.00799, 0.76689, -0.5197), (0.00799, 0.76689, -0.5197), (0.02093, 0.77568, -0.52304),
                (0.02587, 0.7899, -0.52843), (0.02093, 0.80412, -0.53382), (0.00799, 0.8129, -0.53715), (-0.00799, 0.8129, -0.53715),
                (-0.02093, 0.80412, -0.53382), (-0.0198, 0.79312, -0.51994), (-0.01602, 0.78224, -0.51581), (-0.00612, 0.77551, -0.51326),
                (0.00612, 0.77551, -0.51326), (0.01602, 0.78224, -0.51581), (0.0198, 0.79312, -0.51994), (0.01602, 0.804, -0.52406),
                (0.00612, 0.81073, -0.52661), (-0.00612, 0.81073, -0.52661), (-0.01602, 0.804, -0.52406), (-0.01072, 0.79527, -0.51426),
                (-0.00867, 0.78938, -0.51203), (-0.00331, 0.78574, -0.51065), (0.00331, 0.78574, -0.51065), (0.00867, 0.78938, -0.51203),
                (0.01072, 0.79527, -0.51426), (0.00867, 0.80116, -0.51649), (0.00331, 0.8048, -0.51787), (-0.00331, 0.8048, -0.51787),
                (-0.00867, 0.80116, -0.51649), (0, 0.79603, -0.51227)
            ]
            int[] faceVertexCounts = [
                3, 3, 3, 3, 3, 3, 3, 3, 3, 3, 3, 3, 3, 3, 3, 3, 3, 3, 3, 3, 3, 3, 3, 3,
                3, 3, 3, 3, 3, 3, 3, 3, 3, 3, 3, 3, 3, 3, 3, 3, 3, 3, 3, 3, 3, 3, 3, 3,
                3, 3, 3, 3, 3, 3, 3, 3, 3, 3, 3, 3, 3, 3, 3, 3, 3, 3, 3, 3, 3, 3, 3, 3,
                3, 3, 3, 3, 3, 3, 3, 3, 3, 3, 3, 3, 3, 3, 3, 3, 3, 3, 3, 3, 3, 3, 3, 3,
                3, 3, 3, 3, 3, 3, 3, 3, 3, 3, 3, 3, 3, 3, 3, 3, 3, 3, 3, 3, 3, 3, 3, 3,
                3, 3, 3, 3, 3, 3, 3, 3, 3, 3, 3, 3, 3, 3, 3, 3, 3, 3, 3, 3, 3, 3, 3, 3,
                3, 3, 3, 3, 3, 3, 3, 3, 3, 3, 3, 3, 3, 3, 3, 3, 3, 3, 3, 3, 3, 3, 3, 3,
                3, 3, 3, 3, 3, 3, 3, 3, 3, 3, 3, 3, 3, 3, 3, 3, 3, 3, 3, 3, 3, 3, 3, 3,
                3, 3, 3, 3, 3, 3, 3, 3, 3, 3, 3, 3, 3, 3, 3, 3, 3, 3, 3, 3, 3, 3, 3, 3,
                3, 3, 3, 3, 3, 3, 3, 3, 3, 3, 3, 3, 3, 3, 3, 3, 3, 3, 3, 3, 3, 3, 3, 3,
                3, 3, 3, 3, 3, 3, 3, 3, 3, 3, 3, 3, 3, 3, 3, 3, 3, 3, 3, 3, 3, 3, 3, 3,
                3, 3, 3, 3, 3, 3, 3, 3, 3, 3, 3, 3, 3, 3, 3, 3, 3, 3, 3, 3, 3, 3, 3, 3,
                3, 3, 3, 3, 3, 3, 3, 3, 3, 3, 3, 3, 3, 3, 3, 3, 3, 3, 3, 3, 3, 3, 3, 3,
                3, 3, 3, 3, 3, 3, 3, 3, 3, 3, 3, 3, 3, 3, 3, 3, 3, 3, 3, 3, 3, 3, 3, 3,
                3, 3, 3, 3, 3, 3, 3, 3, 3, 3, 3, 3, 3, 3, 3, 3, 3, 3, 3, 3, 3, 3, 3, 3,
                3, 3, 3, 3, 3, 3, 3, 3, 3, 3, 3, 3, 3, 3, 3, 3, 3, 3, 3, 3, 3, 3, 3, 3,
                3, 3, 3, 3, 3, 3, 3, 3, 3, 3, 3, 3, 3, 3, 3, 3, 3, 3, 3, 3, 3, 3, 3, 3,
                3, 3, 3, 3, 3, 3, 3, 3, 3, 3, 3, 3, 3, 3, 3, 3, 3, 3, 3, 3, 3, 3, 3, 3,
                3, 3, 3, 3, 3, 3, 3, 3, 3, 3, 3, 3, 3, 3, 3, 3, 3, 3, 3, 3, 3, 3, 3, 3,
                3, 3, 3, 3, 3, 3, 3, 3, 3, 3, 3, 3, 3, 3, 3, 3, 3, 3, 3, 3, 3, 3, 3, 3,
                3, 3, 3, 3, 3, 3, 3, 3, 3, 3, 3, 3, 3, 3, 3, 3, 3, 3, 3, 3, 3, 3, 3, 3,
                3, 3, 3, 3, 3, 3, 3, 3, 3, 3, 3, 3, 3, 3, 3, 3, 3, 3, 3, 3, 3, 3, 3, 3,
                3, 3, 3, 3, 3, 3, 3, 3, 3, 3, 3, 3, 3, 3, 3, 3, 3, 3, 3, 3, 3, 3, 3, 3,
                3, 3, 3, 3, 3, 3, 3, 3, 3, 3, 3, 3, 3, 3, 3, 3, 3, 3, 3, 3, 3, 3, 3, 3,
                3, 3, 3, 3, 3, 3, 3, 3, 3, 3, 3, 3, 3, 3, 3, 3, 3, 3, 3, 3, 3, 3, 3, 3,
                3, 3, 3, 3, 3, 3, 3, 3, 3, 3, 3, 3, 3, 3, 3, 3, 3, 3, 3, 3, 3, 3, 3, 3,
                3, 3, 3, 3, 3, 3, 3, 3, 3, 3, 3, 3, 3, 3, 3, 3, 3, 3, 3, 3, 3, 3, 3, 3,
                3, 3, 3, 3, 3, 3, 3, 3, 3, 3, 3, 3, 3, 3, 3, 3, 3, 3, 3, 3, 3, 3, 3, 3,
                3, 3, 3, 3, 3, 3, 3, 3, 3, 3, 3, 3, 3, 3, 3, 3, 3, 3, 3, 3, 3, 3, 3, 3,
                3, 3, 3, 3, 3, 3, 3, 3, 3, 3, 3, 3, 3, 3, 3, 3, 3, 3, 3, 3, 3, 3, 3, 3,
                3, 3, 3, 3, 3, 3, 3, 3, 3, 3, 3, 3, 3, 3, 3, 3, 3, 3, 3, 3, 3, 3, 3, 3,
                3, 3, 3, 3, 3, 3, 3, 3, 3, 3, 3, 3, 3, 3, 3, 3, 3, 3, 3, 3, 3, 3, 3, 3,
                3, 3, 3, 3, 3, 3, 3, 3, 3, 3, 3, 3, 3, 3, 3, 3, 3, 3, 3, 3, 3, 3, 3, 3,
                3, 3, 3, 3, 3, 3, 3, 3, 3, 3, 3, 3, 3, 3, 3, 3, 3, 3, 3, 3, 3, 3, 3, 3,
                3, 3, 3, 3, 3, 3, 3, 3, 3, 3, 3, 3, 3, 3, 3, 3, 3, 3, 3, 3, 3, 3, 3, 3,
                3, 3, 3, 3, 3, 3, 3, 3, 3, 3, 3, 3, 3, 3, 3, 3, 3, 3, 3, 3, 3, 3, 3, 3,
                3, 3, 3, 3, 3, 3, 3, 3, 3, 3, 3, 3, 3, 3, 3, 3, 3, 3, 3, 3, 3, 3, 3, 3,
                3, 3, 3, 3, 3, 3, 3, 3, 3, 3, 3, 3, 3, 3, 3, 3, 3, 3, 3, 3, 3, 3, 3, 3,
                3, 3, 3, 3, 3, 3, 3, 3, 3, 3, 3, 3, 3, 3, 3, 3, 3, 3, 3, 3, 3, 3, 3, 3,
                3, 3, 3, 3, 3, 3, 3, 3, 3, 3, 3, 3, 3, 3, 3, 3, 3, 3, 3, 3, 3, 3, 3, 3,
                3, 3, 3, 3, 3, 3, 3, 3, 3, 3, 3, 3, 3, 3, 3, 3, 3, 3, 3, 3, 3, 3, 3, 3,
                3, 3, 3, 3, 3, 3, 3, 3, 3, 3, 3, 3, 3, 3, 3, 3, 3, 3, 3, 3, 3, 3, 3, 3,
                3, 3, 3, 3, 3, 3, 3, 3, 3, 3, 3, 3, 3, 3, 3, 3, 3, 3, 3, 3, 3, 3, 3, 3,
                3, 3, 3, 3, 3, 3, 3, 3, 3, 3, 3, 3, 3, 3, 3, 3, 3, 3, 3, 3, 3, 3, 3, 3,
                3, 3, 3, 3, 3, 3, 3, 3, 3, 3, 3, 3, 3, 3, 3, 3, 3, 3, 3, 3, 3, 3, 3, 3,
                3, 3, 3, 3, 3, 3, 3, 3, 3, 3, 3, 3, 3, 3, 3, 3, 3, 3, 3, 3, 3, 3, 3, 3,
                3, 3, 3, 3, 3, 3, 3, 3, 3, 3, 3, 3, 3, 3, 3, 3, 3, 3, 3, 3, 3, 3, 3, 3,
                3, 3, 3, 3, 3, 3, 3, 3, 3, 3, 3, 3, 3, 3, 3, 3, 3, 3, 3, 3, 3, 3, 3, 3,
                3, 3, 3, 3, 3, 3, 3, 3, 3, 3, 3, 3, 3, 3, 3, 3, 3, 3, 3, 3, 3, 3, 3, 3,
                3, 3, 3, 3, 3, 3, 3, 3, 3, 3, 3, 3, 3, 3, 3, 3, 3, 3, 3, 3, 3, 3, 3, 3,
                3, 3, 3, 3, 3, 3, 3, 3, 3, 3, 3, 3, 3, 3, 3, 3, 3, 3, 3, 3, 3, 3, 3, 3,
                3, 3, 3, 3, 3, 3, 3, 3, 3, 3, 3, 3, 3, 3, 3, 3, 3, 3, 3, 3, 3, 3, 3, 3,
                3, 3, 3, 3, 3, 3, 3, 3, 3, 3, 3, 3, 3, 3, 3, 3, 3, 3, 3, 3, 3, 3, 3, 3,
                3, 3, 3, 3, 3, 3, 3, 3, 3, 3, 3, 3, 3, 3, 3, 3, 3, 3, 3, 3, 3, 3, 3, 3,
                3, 3, 3, 3, 3, 3, 3, 3, 3, 3, 3, 3, 3, 3, 3, 3, 3, 3, 3, 3, 3, 3, 3, 3,
                3, 3, 3, 3, 3, 3, 3, 3, 3, 3, 3, 3, 3, 3, 3, 3, 3, 3, 3, 3, 3, 3, 3, 3,
                3, 3, 3, 3, 3, 3, 3, 3, 3, 3, 3, 3, 3, 3, 3, 3, 3, 3, 3, 3, 3, 3, 3, 3,
                3, 3, 3, 3, 3, 3, 3, 3, 3, 3, 3, 3, 3, 3, 3, 3, 3, 3, 3, 3, 3, 3, 3, 3,
                3, 3, 3, 3, 3, 3, 3, 3, 3, 3, 3, 3, 3, 3, 3, 3, 3, 3, 3, 3, 3, 3, 3, 3,
                3, 3, 3, 3, 3, 3, 3, 3, 3, 3, 3, 3, 3, 3, 3, 3, 3, 3, 3, 3, 3, 3, 3, 3,
                3, 3, 3, 3, 3, 3, 3, 3, 3, 3, 3, 3, 3, 3, 3, 3, 3, 3, 3, 3, 3, 3, 3, 3,
                3, 3, 3, 3, 3, 3, 3, 3, 3, 3, 3, 3, 3, 3, 3, 3, 3, 3, 3, 3, 3, 3, 3, 3,
                3, 3, 3, 3, 3, 3, 3, 3, 3, 3, 3, 3, 3, 3, 3, 3, 3, 3, 3, 3, 3, 3, 3, 3
            ]
            int[] faceVertexIndices = [
                0, 1, 2, 1, 3, 2, 4, 5, 6, 5, 7, 6, 4, 6, 2, 6, 0, 2,
                7, 5, 1, 5, 3, 1, 6, 7, 0, 7, 1, 0, 2, 3, 4, 3, 5, 4,
                8, 9, 10, 9, 11, 10, 12, 13, 14, 13, 15, 14, 12, 14, 10, 14, 8, 10,
                15, 13, 9, 13, 11, 9, 14, 15, 8, 15, 9, 8, 10, 11, 12, 11, 13, 12,
                16, 18, 17, 16, 19, 18, 16, 20, 19, 16, 21, 20, 16, 22, 21, 16, 23, 22,
                16, 24, 23, 16, 25, 24, 16, 26, 25, 16, 17, 26, 17, 18, 27, 18, 28, 27,
                18, 19, 28, 19, 29, 28, 19, 20, 29, 20, 30, 29, 20, 21, 30, 21, 31, 30,
                21, 22, 31, 22, 32, 31, 22, 23, 32, 23, 33, 32, 23, 24, 33, 24, 34, 33,
                24, 25, 34, 25, 35, 34, 25, 26, 35, 26, 36, 35, 26, 17, 36, 17, 27, 36,
                27, 28, 37, 28, 38, 37, 28, 29, 38, 29, 39, 38, 29, 30, 39, 30, 40, 39,
                30, 31, 40, 31, 41, 40, 31, 32, 41, 32, 42, 41, 32, 33, 42, 33, 43, 42,
                33, 34, 43, 34, 44, 43, 34, 35, 44, 35, 45, 44, 35, 36, 45, 36, 46, 45,
                36, 27, 46, 27, 37, 46, 37, 38, 47, 38, 48, 47, 38, 39, 48, 39, 49, 48,
                39, 40, 49, 40, 50, 49, 40, 41, 50, 41, 51, 50, 41, 42, 51, 42, 52, 51,
                42, 43, 52, 43, 53, 52, 43, 44, 53, 44, 54, 53, 44, 45, 54, 45, 55, 54,
                45, 46, 55, 46, 56, 55, 46, 37, 56, 37, 47, 56, 47, 48, 57, 48, 58, 57,
                48, 49, 58, 49, 59, 58, 49, 50, 59, 50, 60, 59, 50, 51, 60, 51, 61, 60,
                51, 52, 61, 52, 62, 61, 52, 53, 62, 53, 63, 62, 53, 54, 63, 54, 64, 63,
                54, 55, 64, 55, 65, 64, 55, 56, 65, 56, 66, 65, 56, 47, 66, 47, 57, 66,
                57, 58, 67, 58, 68, 67, 58, 59, 68, 59, 69, 68, 59, 60, 69, 60, 70, 69,
                60, 61, 70, 61, 71, 70, 61, 62, 71, 62, 72, 71, 62, 63, 72, 63, 73, 72,
                63, 64, 73, 64, 74, 73, 64, 65, 74, 65, 75, 74, 65, 66, 75, 66, 76, 75,
                66, 57, 76, 57, 67, 76, 67, 68, 77, 68, 78, 77, 68, 69, 78, 69, 79, 78,
                69, 70, 79, 70, 80, 79, 70, 71, 80, 71, 81, 80, 71, 72, 81, 72, 82, 81,
                72, 73, 82, 73, 83, 82, 73, 74, 83, 74, 84, 83, 74, 75, 84, 75, 85, 84,
                75, 76, 85, 76, 86, 85, 76, 67, 86, 67, 77, 86, 77, 78, 87, 78, 88, 87,
                78, 79, 88, 79, 89, 88, 79, 80, 89, 80, 90, 89, 80, 81, 90, 81, 91, 90,
                81, 82, 91, 82, 92, 91, 82, 83, 92, 83, 93, 92, 83, 84, 93, 84, 94, 93,
                84, 85, 94, 85, 95, 94, 85, 86, 95, 86, 96, 95, 86, 77, 96, 77, 87, 96,
                87, 88, 97, 88, 89, 97, 89, 90, 97, 90, 91, 97, 91, 92, 97, 92, 93, 97,
                93, 94, 97, 94, 95, 97, 95, 96, 97, 96, 87, 97, 98, 100, 99, 98, 101, 100,
                98, 102, 101, 98, 103, 102, 98, 104, 103, 98, 105, 104, 98, 106, 105, 98, 107, 106,
                98, 108, 107, 98, 99, 108, 99, 100, 109, 100, 110, 109, 100, 101, 110, 101, 111, 110,
                101, 102, 111, 102, 112, 111, 102, 103, 112, 103, 113, 112, 103, 104, 113, 104, 114, 113,
                104, 105, 114, 105, 115, 114, 105, 106, 115, 106, 116, 115, 106, 107, 116, 107, 117, 116,
                107, 108, 117, 108, 118, 117, 108, 99, 118, 99, 109, 118, 109, 110, 119, 110, 120, 119,
                110, 111, 120, 111, 121, 120, 111, 112, 121, 112, 122, 121, 112, 113, 122, 113, 123, 122,
                113, 114, 123, 114, 124, 123, 114, 115, 124, 115, 125, 124, 115, 116, 125, 116, 126, 125,
                116, 117, 126, 117, 127, 126, 117, 118, 127, 118, 128, 127, 118, 109, 128, 109, 119, 128,
                119, 120, 129, 120, 130, 129, 120, 121, 130, 121, 131, 130, 121, 122, 131, 122, 132, 131,
                122, 123, 132, 123, 133, 132, 123, 124, 133, 124, 134, 133, 124, 125, 134, 125, 135, 134,
                125, 126, 135, 126, 136, 135, 126, 127, 136, 127, 137, 136, 127, 128, 137, 128, 138, 137,
                128, 119, 138, 119, 129, 138, 129, 130, 139, 130, 140, 139, 130, 131, 140, 131, 141, 140,
                131, 132, 141, 132, 142, 141, 132, 133, 142, 133, 143, 142, 133, 134, 143, 134, 144, 143,
                134, 135, 144, 135, 145, 144, 135, 136, 145, 136, 146, 145, 136, 137, 146, 137, 147, 146,
                137, 138, 147, 138, 148, 147, 138, 129, 148, 129, 139, 148, 139, 140, 149, 140, 150, 149,
                140, 141, 150, 141, 151, 150, 141, 142, 151, 142, 152, 151, 142, 143, 152, 143, 153, 152,
                143, 144, 153, 144, 154, 153, 144, 145, 154, 145, 155, 154, 145, 146, 155, 146, 156, 155,
                146, 147, 156, 147, 157, 156, 147, 148, 157, 148, 158, 157, 148, 139, 158, 139, 149, 158,
                149, 150, 159, 150, 160, 159, 150, 151, 160, 151, 161, 160, 151, 152, 161, 152, 162, 161,
                152, 153, 162, 153, 163, 162, 153, 154, 163, 154, 164, 163, 154, 155, 164, 155, 165, 164,
                155, 156, 165, 156, 166, 165, 156, 157, 166, 157, 167, 166, 157, 158, 167, 158, 168, 167,
                158, 149, 168, 149, 159, 168, 159, 160, 169, 160, 170, 169, 160, 161, 170, 161, 171, 170,
                161, 162, 171, 162, 172, 171, 162, 163, 172, 163, 173, 172, 163, 164, 173, 164, 174, 173,
                164, 165, 174, 165, 175, 174, 165, 166, 175, 166, 176, 175, 166, 167, 176, 167, 177, 176,
                167, 168, 177, 168, 178, 177, 168, 159, 178, 159, 169, 178, 169, 170, 179, 170, 171, 179,
                171, 172, 179, 172, 173, 179, 173, 174, 179, 174, 175, 179, 175, 176, 179, 176, 177, 179,
                177, 178, 179, 178, 169, 179, 180, 181, 182, 181, 183, 182, 184, 185, 186, 185, 187, 186,
                184, 186, 182, 186, 180, 182, 187, 185, 181, 185, 183, 181, 186, 187, 180, 187, 181, 180,
                182, 183, 184, 183, 185, 184, 188, 190, 189, 188, 191, 190, 188, 192, 191, 188, 193, 192,
                188, 194, 193, 188, 195, 194, 188, 196, 195, 188, 197, 196, 188, 198, 197, 188, 189, 198,
                189, 190, 199, 190, 200, 199, 190, 191, 200, 191, 201, 200, 191, 192, 201, 192, 202, 201,
                192, 193, 202, 193, 203, 202, 193, 194, 203, 194, 204, 203, 194, 195, 204, 195, 205, 204,
                195, 196, 205, 196, 206, 205, 196, 197, 206, 197, 207, 206, 197, 198, 207, 198, 208, 207,
                198, 189, 208, 189, 199, 208, 199, 200, 209, 200, 210, 209, 200, 201, 210, 201, 211, 210,
                201, 202, 211, 202, 212, 211, 202, 203, 212, 203, 213, 212, 203, 204, 213, 204, 214, 213,
                204, 205, 214, 205, 215, 214, 205, 206, 215, 206, 216, 215, 206, 207, 216, 207, 217, 216,
                207, 208, 217, 208, 218, 217, 208, 199, 218, 199, 209, 218, 209, 210, 219, 210, 220, 219,
                210, 211, 220, 211, 221, 220, 211, 212, 221, 212, 222, 221, 212, 213, 222, 213, 223, 222,
                213, 214, 223, 214, 224, 223, 214, 215, 224, 215, 225, 224, 215, 216, 225, 216, 226, 225,
                216, 217, 226, 217, 227, 226, 217, 218, 227, 218, 228, 227, 218, 209, 228, 209, 219, 228,
                219, 220, 229, 220, 230, 229, 220, 221, 230, 221, 231, 230, 221, 222, 231, 222, 232, 231,
                222, 223, 232, 223, 233, 232, 223, 224, 233, 224, 234, 233, 224, 225, 234, 225, 235, 234,
                225, 226, 235, 226, 236, 235, 226, 227, 236, 227, 237, 236, 227, 228, 237, 228, 238, 237,
                228, 219, 238, 219, 229, 238, 229, 230, 239, 230, 240, 239, 230, 231, 240, 231, 241, 240,
                231, 232, 241, 232, 242, 241, 232, 233, 242, 233, 243, 242, 233, 234, 243, 234, 244, 243,
                234, 235, 244, 235, 245, 244, 235, 236, 245, 236, 246, 245, 236, 237, 246, 237, 247, 246,
                237, 238, 247, 238, 248, 247, 238, 229, 248, 229, 239, 248, 239, 240, 249, 240, 250, 249,
                240, 241, 250, 241, 251, 250, 241, 242, 251, 242, 252, 251, 242, 243, 252, 243, 253, 252,
                243, 244, 253, 244, 254, 253, 244, 245, 254, 245, 255, 254, 245, 246, 255, 246, 256, 255,
                246, 247, 256, 247, 257, 256, 247, 248, 257, 248, 258, 257, 248, 239, 258, 239, 249, 258,
                249, 250, 259, 250, 260, 259, 250, 251, 260, 251, 261, 260, 251, 252, 261, 252, 262, 261,
                252, 253, 262, 253, 263, 262, 253, 254, 263, 254, 264, 263, 254, 255, 264, 255, 265, 264,
                255, 256, 265, 256, 266, 265, 256, 257, 266, 257, 267, 266, 257, 258, 267, 258, 268, 267,
                258, 249, 268, 249, 259, 268, 259, 260, 269, 260, 261, 269, 261, 262, 269, 262, 263, 269,
                263, 264, 269, 264, 265, 269, 265, 266, 269, 266, 267, 269, 267, 268, 269, 268, 259, 269,
                270, 272, 271, 270, 273, 272, 270, 274, 273, 270, 275, 274, 270, 276, 275, 270, 277, 276,
                270, 278, 277, 270, 279, 278, 270, 280, 279, 270, 271, 280, 271, 272, 281, 272, 282, 281,
                272, 273, 282, 273, 283, 282, 273, 274, 283, 274, 284, 283, 274, 275, 284, 275, 285, 284,
                275, 276, 285, 276, 286, 285, 276, 277, 286, 277, 287, 286, 277, 278, 287, 278, 288, 287,
                278, 279, 288, 279, 289, 288, 279, 280, 289, 280, 290, 289, 280, 271, 290, 271, 281, 290,
                281, 282, 291, 282, 292, 291, 282, 283, 292, 283, 293, 292, 283, 284, 293, 284, 294, 293,
                284, 285, 294, 285, 295, 294, 285, 286, 295, 286, 296, 295, 286, 287, 296, 287, 297, 296,
                287, 288, 297, 288, 298, 297, 288, 289, 298, 289, 299, 298, 289, 290, 299, 290, 300, 299,
                290, 281, 300, 281, 291, 300, 291, 292, 301, 292, 302, 301, 292, 293, 302, 293, 303, 302,
                293, 294, 303, 294, 304, 303, 294, 295, 304, 295, 305, 304, 295, 296, 305, 296, 306, 305,
                296, 297, 306, 297, 307, 306, 297, 298, 307, 298, 308, 307, 298, 299, 308, 299, 309, 308,
                299, 300, 309, 300, 310, 309, 300, 291, 310, 291, 301, 310, 301, 302, 311, 302, 312, 311,
                302, 303, 312, 303, 313, 312, 303, 304, 313, 304, 314, 313, 304, 305, 314, 305, 315, 314,
                305, 306, 315, 306, 316, 315, 306, 307, 316, 307, 317, 316, 307, 308, 317, 308, 318, 317,
                308, 309, 318, 309, 319, 318, 309, 310, 319, 310, 320, 319, 310, 301, 320, 301, 311, 320,
                311, 312, 321, 312, 322, 321, 312, 313, 322, 313, 323, 322, 313, 314, 323, 314, 324, 323,
                314, 315, 324, 315, 325, 324, 315, 316, 325, 316, 326, 325, 316, 317, 326, 317, 327, 326,
                317, 318, 327, 318, 328, 327, 318, 319, 328, 319, 329, 328, 319, 320, 329, 320, 330, 329,
                320, 311, 330, 311, 321, 330, 321, 322, 331, 322, 332, 331, 322, 323, 332, 323, 333, 332,
                323, 324, 333, 324, 334, 333, 324, 325, 334, 325, 335, 334, 325, 326, 335, 326, 336, 335,
                326, 327, 336, 327, 337, 336, 327, 328, 337, 328, 338, 337, 328, 329, 338, 329, 339, 338,
                329, 330, 339, 330, 340, 339, 330, 321, 340, 321, 331, 340, 331, 332, 341, 332, 342, 341,
                332, 333, 342, 333, 343, 342, 333, 334, 343, 334, 344, 343, 334, 335, 344, 335, 345, 344,
                335, 336, 345, 336, 346, 345, 336, 337, 346, 337, 347, 346, 337, 338, 347, 338, 348, 347,
                338, 339, 348, 339, 349, 348, 339, 340, 349, 340, 350, 349, 340, 331, 350, 331, 341, 350,
                341, 342, 351, 342, 343, 351, 343, 344, 351, 344, 345, 351, 345, 346, 351, 346, 347, 351,
                347, 348, 351, 348, 349, 351, 349, 350, 351, 350, 341, 351, 352, 353, 354, 353, 355, 354,
                356, 357, 358, 357, 359, 358, 356, 358, 354, 358, 352, 354, 359, 357, 353, 357, 355, 353,
                358, 359, 352, 359, 353, 352, 354, 355, 356, 355, 357, 356, 360, 362, 361, 360, 363, 362,
                360, 364, 363, 360, 365, 364, 360, 366, 365, 360, 367, 366, 360, 368, 367, 360, 369, 368,
                360, 370, 369, 360, 361, 370, 361, 362, 371, 362, 372, 371, 362, 363, 372, 363, 373, 372,
                363, 364, 373, 364, 374, 373, 364, 365, 374, 365, 375, 374, 365, 366, 375, 366, 376, 375,
                366, 367, 376, 367, 377, 376, 367, 368, 377, 368, 378, 377, 368, 369, 378, 369, 379, 378,
                369, 370, 379, 370, 380, 379, 370, 361, 380, 361, 371, 380, 371, 372, 381, 372, 382, 381,
                372, 373, 382, 373, 383, 382, 373, 374, 383, 374, 384, 383, 374, 375, 384, 375, 385, 384,
                375, 376, 385, 376, 386, 385, 376, 377, 386, 377, 387, 386, 377, 378, 387, 378, 388, 387,
                378, 379, 388, 379, 389, 388, 379, 380, 389, 380, 390, 389, 380, 371, 390, 371, 381, 390,
                381, 382, 391, 382, 392, 391, 382, 383, 392, 383, 393, 392, 383, 384, 393, 384, 394, 393,
                384, 385, 394, 385, 395, 394, 385, 386, 395, 386, 396, 395, 386, 387, 396, 387, 397, 396,
                387, 388, 397, 388, 398, 397, 388, 389, 398, 389, 399, 398, 389, 390, 399, 390, 400, 399,
                390, 381, 400, 381, 391, 400, 391, 392, 401, 392, 402, 401, 392, 393, 402, 393, 403, 402,
                393, 394, 403, 394, 404, 403, 394, 395, 404, 395, 405, 404, 395, 396, 405, 396, 406, 405,
                396, 397, 406, 397, 407, 406, 397, 398, 407, 398, 408, 407, 398, 399, 408, 399, 409, 408,
                399, 400, 409, 400, 410, 409, 400, 391, 410, 391, 401, 410, 401, 402, 411, 402, 412, 411,
                402, 403, 412, 403, 413, 412, 403, 404, 413, 404, 414, 413, 404, 405, 414, 405, 415, 414,
                405, 406, 415, 406, 416, 415, 406, 407, 416, 407, 417, 416, 407, 408, 417, 408, 418, 417,
                408, 409, 418, 409, 419, 418, 409, 410, 419, 410, 420, 419, 410, 401, 420, 401, 411, 420,
                411, 412, 421, 412, 422, 421, 412, 413, 422, 413, 423, 422, 413, 414, 423, 414, 424, 423,
                414, 415, 424, 415, 425, 424, 415, 416, 425, 416, 426, 425, 416, 417, 426, 417, 427, 426,
                417, 418, 427, 418, 428, 427, 418, 419, 428, 419, 429, 428, 419, 420, 429, 420, 430, 429,
                420, 411, 430, 411, 421, 430, 421, 422, 431, 422, 432, 431, 422, 423, 432, 423, 433, 432,
                423, 424, 433, 424, 434, 433, 424, 425, 434, 425, 435, 434, 425, 426, 435, 426, 436, 435,
                426, 427, 436, 427, 437, 436, 427, 428, 437, 428, 438, 437, 428, 429, 438, 429, 439, 438,
                429, 430, 439, 430, 440, 439, 430, 421, 440, 421, 431, 440, 431, 432, 441, 432, 433, 441,
                433, 434, 441, 434, 435, 441, 435, 436, 441, 436, 437, 441, 437, 438, 441, 438, 439, 441,
                439, 440, 441, 440, 431, 441, 442, 444, 443, 442, 445, 444, 442, 446, 445, 442, 447, 446,
                442, 448, 447, 442, 449, 448, 442, 450, 449, 442, 451, 450, 442, 452, 451, 442, 443, 452,
                443, 444, 453, 444, 454, 453, 444, 445, 454, 445, 455, 454, 445, 446, 455, 446, 456, 455,
                446, 447, 456, 447, 457, 456, 447, 448, 457, 448, 458, 457, 448, 449, 458, 449, 459, 458,
                449, 450, 459, 450, 460, 459, 450, 451, 460, 451, 461, 460, 451, 452, 461, 452, 462, 461,
                452, 443, 462, 443, 453, 462, 453, 454, 463, 454, 464, 463, 454, 455, 464, 455, 465, 464,
                455, 456, 465, 456, 466, 465, 456, 457, 466, 457, 467, 466, 457, 458, 467, 458, 468, 467,
                458, 459, 468, 459, 469, 468, 459, 460, 469, 460, 470, 469, 460, 461, 470, 461, 471, 470,
                461, 462, 471, 462, 472, 471, 462, 453, 472, 453, 463, 472, 463, 464, 473, 464, 474, 473,
                464, 465, 474, 465, 475, 474, 465, 466, 475, 466, 476, 475, 466, 467, 476, 467, 477, 476,
                467, 468, 477, 468, 478, 477, 468, 469, 478, 469, 479, 478, 469, 470, 479, 470, 480, 479,
                470, 471, 480, 471, 481, 480, 471, 472, 481, 472, 482, 481, 472, 463, 482, 463, 473, 482,
                473, 474, 483, 474, 484, 483, 474, 475, 484, 475, 485, 484, 475, 476, 485, 476, 486, 485,
                476, 477, 486, 477, 487, 486, 477, 478, 487, 478, 488, 487, 478, 479, 488, 479, 489, 488,
                479, 480, 489, 480, 490, 489, 480, 481, 490, 481, 491, 490, 481, 482, 491, 482, 492, 491,
                482, 473, 492, 473, 483, 492, 483, 484, 493, 484, 494, 493, 484, 485, 494, 485, 495, 494,
                485, 486, 495, 486, 496, 495, 486, 487, 496, 487, 497, 496, 487, 488, 497, 488, 498, 497,
                488, 489, 498, 489, 499, 498, 489, 490, 499, 490, 500, 499, 490, 491, 500, 491, 501, 500,
                491, 492, 501, 492, 502, 501, 492, 483, 502, 483, 493, 502, 493, 494, 503, 494, 504, 503,
                494, 495, 504, 495, 505, 504, 495, 496, 505, 496, 506, 505, 496, 497, 506, 497, 507, 506,
                497, 498, 507, 498, 508, 507, 498, 499, 508, 499, 509, 508, 499, 500, 509, 500, 510, 509,
                500, 501, 510, 501, 511, 510, 501, 502, 511, 502, 512, 511, 502, 493, 512, 493, 503, 512,
                503, 504, 513, 504, 514, 513, 504, 505, 514, 505, 515, 514, 505, 506, 515, 506, 516, 515,
                506, 507, 516, 507, 517, 516, 507, 508, 517, 508, 518, 517, 508, 509, 518, 509, 519, 518,
                509, 510, 519, 510, 520, 519, 510, 511, 520, 511, 521, 520, 511, 512, 521, 512, 522, 521,
                512, 503, 522, 503, 513, 522, 513, 514, 523, 514, 515, 523, 515, 516, 523, 516, 517, 523,
                517, 518, 523, 518, 519, 523, 519, 520, 523, 520, 521, 523, 521, 522, 523, 522, 513, 523,
                524, 525, 526, 525, 527, 526, 528, 529, 530, 529, 531, 530, 528, 530, 526, 530, 524, 526,
                531, 529, 525, 529, 527, 525, 530, 531, 524, 531, 525, 524, 526, 527, 528, 527, 529, 528,
                532, 534, 533, 532, 535, 534, 532, 536, 535, 532, 537, 536, 532, 538, 537, 532, 539, 538,
                532, 540, 539, 532, 541, 540, 532, 542, 541, 532, 533, 542, 533, 534, 543, 534, 544, 543,
                534, 535, 544, 535, 545, 544, 535, 536, 545, 536, 546, 545, 536, 537, 546, 537, 547, 546,
                537, 538, 547, 538, 548, 547, 538, 539, 548, 539, 549, 548, 539, 540, 549, 540, 550, 549,
                540, 541, 550, 541, 551, 550, 541, 542, 551, 542, 552, 551, 542, 533, 552, 533, 543, 552,
                543, 544, 553, 544, 554, 553, 544, 545, 554, 545, 555, 554, 545, 546, 555, 546, 556, 555,
                546, 547, 556, 547, 557, 556, 547, 548, 557, 548, 558, 557, 548, 549, 558, 549, 559, 558,
                549, 550, 559, 550, 560, 559, 550, 551, 560, 551, 561, 560, 551, 552, 561, 552, 562, 561,
                552, 543, 562, 543, 553, 562, 553, 554, 563, 554, 564, 563, 554, 555, 564, 555, 565, 564,
                555, 556, 565, 556, 566, 565, 556, 557, 566, 557, 567, 566, 557, 558, 567, 558, 568, 567,
                558, 559, 568, 559, 569, 568, 559, 560, 569, 560, 570, 569, 560, 561, 570, 561, 571, 570,
                561, 562, 571, 562, 572, 571, 562, 553, 572, 553, 563, 572, 563, 564, 573, 564, 574, 573,
                564, 565, 574, 565, 575, 574, 565, 566, 575, 566, 576, 575, 566, 567, 576, 567, 577, 576,
                567, 568, 577, 568, 578, 577, 568, 569, 578, 569, 579, 578, 569, 570, 579, 570, 580, 579,
                570, 571, 580, 571, 581, 580, 571, 572, 581, 572, 582, 581, 572, 563, 582, 563, 573, 582,
                573, 574, 583, 574, 584, 583, 574, 575, 584, 575, 585, 584, 575, 576, 585, 576, 586, 585,
                576, 577, 586, 577, 587, 586, 577, 578, 587, 578, 588, 587, 578, 579, 588, 579, 589, 588,
                579, 580, 589, 580, 590, 589, 580, 581, 590, 581, 591, 590, 581, 582, 591, 582, 592, 591,
                582, 573, 592, 573, 583, 592, 583, 584, 593, 584, 594, 593, 584, 585, 594, 585, 595, 594,
                585, 586, 595, 586, 596, 595, 586, 587, 596, 587, 597, 596, 587, 588, 597, 588, 598, 597,
                588, 589, 598, 589, 599, 598, 589, 590, 599, 590, 600, 599, 590, 591, 600, 591, 601, 600,
                591, 592, 601, 592, 602, 601, 592, 583, 602, 583, 593, 602, 593, 594, 603, 594, 604, 603,
                594, 595, 604, 595, 605, 604, 595, 596, 605, 596, 606, 605, 596, 597, 606, 597, 607, 606,
                597, 598, 607, 598, 608, 607, 598, 599, 608, 599, 609, 608, 599, 600, 609, 600, 610, 609,
                600, 601, 610, 601, 611, 610, 601, 602, 611, 602, 612, 611, 602, 593, 612, 593, 603, 612,
                603, 604, 613, 604, 605, 613, 605, 606, 613, 606, 607, 613, 607, 608, 613, 608, 609, 613,
                609, 610, 613, 610, 611, 613, 611, 612, 613, 612, 603, 613, 614, 616, 615, 614, 617, 616,
                614, 618, 617, 614, 619, 618, 614, 620, 619, 614, 621, 620, 614, 622, 621, 614, 623, 622,
                614, 624, 623, 614, 615, 624, 615, 616, 625, 616, 626, 625, 616, 617, 626, 617, 627, 626,
                617, 618, 627, 618, 628, 627, 618, 619, 628, 619, 629, 628, 619, 620, 629, 620, 630, 629,
                620, 621, 630, 621, 631, 630, 621, 622, 631, 622, 632, 631, 622, 623, 632, 623, 633, 632,
                623, 624, 633, 624, 634, 633, 624, 615, 634, 615, 625, 634, 625, 626, 635, 626, 636, 635,
                626, 627, 636, 627, 637, 636, 627, 628, 637, 628, 638, 637, 628, 629, 638, 629, 639, 638,
                629, 630, 639, 630, 640, 639, 630, 631, 640, 631, 641, 640, 631, 632, 641, 632, 642, 641,
                632, 633, 642, 633, 643, 642, 633, 634, 643, 634, 644, 643, 634, 625, 644, 625, 635, 644,
                635, 636, 645, 636, 646, 645, 636, 637, 646, 637, 647, 646, 637, 638, 647, 638, 648, 647,
                638, 639, 648, 639, 649, 648, 639, 640, 649, 640, 650, 649, 640, 641, 650, 641, 651, 650,
                641, 642, 651, 642, 652, 651, 642, 643, 652, 643, 653, 652, 643, 644, 653, 644, 654, 653,
                644, 635, 654, 635, 645, 654, 645, 646, 655, 646, 656, 655, 646, 647, 656, 647, 657, 656,
                647, 648, 657, 648, 658, 657, 648, 649, 658, 649, 659, 658, 649, 650, 659, 650, 660, 659,
                650, 651, 660, 651, 661, 660, 651, 652, 661, 652, 662, 661, 652, 653, 662, 653, 663, 662,
                653, 654, 663, 654, 664, 663, 654, 645, 664, 645, 655, 664, 655, 656, 665, 656, 666, 665,
                656, 657, 666, 657, 667, 666, 657, 658, 667, 658, 668, 667, 658, 659, 668, 659, 669, 668,
                659, 660, 669, 660, 670, 669, 660, 661, 670, 661, 671, 670, 661, 662, 671, 662, 672, 671,
                662, 663, 672, 663, 673, 672, 663, 664, 673, 664, 674, 673, 664, 655, 674, 655, 665, 674,
                665, 666, 675, 666, 676, 675, 666, 667, 676, 667, 677, 676, 667, 668, 677, 668, 678, 677,
                668, 669, 678, 669, 679, 678, 669, 670, 679, 670, 680, 679, 670, 671, 680, 671, 681, 680,
                671, 672, 681, 672, 682, 681, 672, 673, 682, 673, 683, 682, 673, 674, 683, 674, 684, 683,
                674, 665, 684, 665, 675, 684, 675, 676, 685, 676, 686, 685, 676, 677, 686, 677, 687, 686,
                677, 678, 687, 678, 688, 687, 678, 679, 688, 679, 689, 688, 679, 680, 689, 680, 690, 689,
                680, 681, 690, 681, 691, 690, 681, 682, 691, 682, 692, 691, 682, 683, 692, 683, 693, 692,
                683, 684, 693, 684, 694, 693, 684, 675, 694, 675, 685, 694, 685, 686, 695, 686, 687, 695,
                687, 688, 695, 688, 689, 695, 689, 690, 695, 690, 691, 695, 691, 692, 695, 692, 693, 695,
                693, 694, 695, 694, 685, 695, 696, 697, 698, 697, 699, 698, 700, 701, 702, 701, 703, 702,
                700, 702, 698, 702, 696, 698, 703, 701, 697, 701, 699, 697, 702, 703, 696, 703, 697, 696,
                698, 699, 700, 699, 701, 700, 704, 706, 705, 704, 707, 706, 704, 708, 707, 704, 709, 708,
                704, 710, 709, 704, 711, 710, 704, 712, 711, 704, 713, 712, 704, 714, 713, 704, 705, 714,
                705, 706, 715, 706, 716, 715, 706, 707, 716, 707, 717, 716, 707, 708, 717, 708, 718, 717,
                708, 709, 718, 709, 719, 718, 709, 710, 719, 710, 720, 719, 710, 711, 720, 711, 721, 720,
                711, 712, 721, 712, 722, 721, 712, 713, 722, 713, 723, 722, 713, 714, 723, 714, 724, 723,
                714, 705, 724, 705, 715, 724, 715, 716, 725, 716, 726, 725, 716, 717, 726, 717, 727, 726,
                717, 718, 727, 718, 728, 727, 718, 719, 728, 719, 729, 728, 719, 720, 729, 720, 730, 729,
                720, 721, 730, 721, 731, 730, 721, 722, 731, 722, 732, 731, 722, 723, 732, 723, 733, 732,
                723, 724, 733, 724, 734, 733, 724, 715, 734, 715, 725, 734, 725, 726, 735, 726, 736, 735,
                726, 727, 736, 727, 737, 736, 727, 728, 737, 728, 738, 737, 728, 729, 738, 729, 739, 738,
                729, 730, 739, 730, 740, 739, 730, 731, 740, 731, 741, 740, 731, 732, 741, 732, 742, 741,
                732, 733, 742, 733, 743, 742, 733, 734, 743, 734, 744, 743, 734, 725, 744, 725, 735, 744,
                735, 736, 745, 736, 746, 745, 736, 737, 746, 737, 747, 746, 737, 738, 747, 738, 748, 747,
                738, 739, 748, 739, 749, 748, 739, 740, 749, 740, 750, 749, 740, 741, 750, 741, 751, 750,
                741, 742, 751, 742, 752, 751, 742, 743, 752, 743, 753, 752, 743, 744, 753, 744, 754, 753,
                744, 735, 754, 735, 745, 754, 745, 746, 755, 746, 756, 755, 746, 747, 756, 747, 757, 756,
                747, 748, 757, 748, 758, 757, 748, 749, 758, 749, 759, 758, 749, 750, 759, 750, 760, 759,
                750, 751, 760, 751, 761, 760, 751, 752, 761, 752, 762, 761, 752, 753, 762, 753, 763, 762,
                753, 754, 763, 754, 764, 763, 754, 745, 764, 745, 755, 764, 755, 756, 765, 756, 766, 765,
                756, 757, 766, 757, 767, 766, 757, 758, 767, 758, 768, 767, 758, 759, 768, 759, 769, 768,
                759, 760, 769, 760, 770, 769, 760, 761, 770, 761, 771, 770, 761, 762, 771, 762, 772, 771,
                762, 763, 772, 763, 773, 772, 763, 764, 773, 764, 774, 773, 764, 755, 774, 755, 765, 774,
                765, 766, 775, 766, 776, 775, 766, 767, 776, 767, 777, 776, 767, 768, 777, 768, 778, 777,
                768, 769, 778, 769, 779, 778, 769, 770, 779, 770, 780, 779, 770, 771, 780, 771, 781, 780,
                771, 772, 781, 772, 782, 781, 772, 773, 782, 773, 783, 782, 773, 774, 783, 774, 784, 783,
                774, 765, 784, 765, 775, 784, 775, 776, 785, 776, 777, 785, 777, 778, 785, 778, 779, 785,
                779, 780, 785, 780, 781, 785, 781, 782, 785, 782, 783, 785, 783, 784, 785, 784, 775, 785
            ]
        }
        def Mesh "Head"
        {
            uniform token subdivisionScheme = "none"
            point3f[] points = [
                (0, 0.78338, 0.32376), (-0.02679, 0.78446, 0.32898), (-0.02167, 0.76905, 0.33219), (-0.00828, 0.75952, 0.33417),
                (0.00828, 0.75952, 0.33417), (0.02167, 0.76905, 0.33219), (0.02679, 0.78446, 0.32898), (0.02167, 0.79988, 0.32578),
                (0.00828, 0.80941, 0.3238), (-0.00828, 0.80941, 0.3238), (-0.02167, 0.79988, 0.32578), (-0.0495, 0.78755, 0.34384),
                (-0.04004, 0.75906, 0.34976), (-0.0153, 0.74146, 0.35342), (0.0153, 0.74146, 0.35342), (0.04004, 0.75906, 0.34976),
                (0.0495, 0.78755, 0.34384), (0.04004, 0.81603, 0.33792), (0.0153, 0.83364, 0.33426), (-0.0153, 0.83364, 0.33426),
                (-0.04004, 0.81603, 0.33792), (-0.06467, 0.79217, 0.36607), (-0.05232, 0.75495, 0.37381), (-0.01998, 0.73195, 0.37859),
                (0.01998, 0.73195, 0.37859), (0.05232, 0.75495, 0.37381), (0.06467, 0.79217, 0.36607), (0.05232, 0.82939, 0.35834),
                (0.01998, 0.85239, 0.35356), (-0.01998, 0.85239, 0.35356), (-0.05232, 0.82939, 0.35834), (-0.07, 0.79762, 0.3923),
                (-0.05663, 0.75734, 0.40067), (-0.02163, 0.73244, 0.40585), (0.02163, 0.73244, 0.40585), (0.05663, 0.75734, 0.40067),
                (0.07, 0.79762, 0.3923), (0.05663, 0.8379, 0.38393), (0.02163, 0.8628, 0.37876), (-0.02163, 0.8628, 0.37876),
                (-0.05663, 0.8379, 0.38393), (-0.07, 0.84238, 0.6077), (-0.05663, 0.8021, 0.61607), (-0.02163, 0.7772, 0.62124),
                (0.02163, 0.7772, 0.62124), (0.05663, 0.8021, 0.61607), (0.07, 0.84238, 0.6077), (0.05663, 0.88266, 0.59933),
                (0.02163, 0.90756, 0.59415), (-0.02163, 0.90756, 0.59415), (-0.05663, 0.88266, 0.59933), (-0.06467, 0.84783, 0.63393),
                (-0.05232, 0.81061, 0.64166), (-0.01998, 0.78761, 0.64644), (0.01998, 0.78761, 0.64644), (0.05232, 0.81061, 0.64166),
                (0.06467, 0.84783, 0.63393), (0.05232, 0.88505, 0.62619), (0.01998, 0.90805, 0.62141), (-0.01998, 0.90805, 0.62141),
                (-0.05232, 0.88505, 0.62619), (-0.0495, 0.85245, 0.65616), (-0.04004, 0.82397, 0.66208), (-0.0153, 0.80636, 0.66574),
                (0.0153, 0.80636, 0.66574), (0.04004, 0.82397, 0.66208), (0.0495, 0.85245, 0.65616), (0.04004, 0.88094, 0.65024),
                (0.0153, 0.89854, 0.64658), (-0.0153, 0.89854, 0.64658), (-0.04004, 0.88094, 0.65024), (-0.02679, 0.85554, 0.67102),
                (-0.02167, 0.84012, 0.67422), (-0.00828, 0.83059, 0.6762), (0.00828, 0.83059, 0.6762), (0.02167, 0.84012, 0.67422),
                (0.02679, 0.85554, 0.67102), (0.02167, 0.87095, 0.66781), (0.00828, 0.88048, 0.66583), (-0.00828, 0.88048, 0.66583),
                (-0.02167, 0.87095, 0.66781), (0, 0.85662, 0.67624), (0.075, 1.02, 0.77), (0.075, 0.86, 0.77),
                (0.075, 1.02, 0.55), (0.075, 0.86, 0.55), (-0.075, 1.02, 0.55), (-0.075, 0.86, 0.55),
                (-0.075, 1.02, 0.77), (-0.075, 0.86, 0.77), (0.05, 0.945, 0.9), (0.05, 0.855, 0.9),
                (0.05, 0.945, 0.74), (0.05, 0.855, 0.74), (-0.05, 0.945, 0.74), (-0.05, 0.855, 0.74),
                (-0.05, 0.945, 0.9), (-0.05, 0.855, 0.9), (0.085, 1.085, 0.61), (0.085, 0.995, 0.61),
                (0.085, 1.085, 0.59), (0.085, 0.995, 0.59), (0.035, 1.085, 0.59), (0.035, 0.995, 0.59),
                (0.035, 1.085, 0.61), (0.035, 0.995, 0.61), (-0.035, 1.085, 0.61), (-0.035, 0.995, 0.61),
                (-0.035, 1.085, 0.59), (-0.035, 0.995, 0.59), (-0.085, 1.085, 0.59), (-0.085, 0.995, 0.59),
                (-0.085, 1.085, 0.61), (-0.085, 0.995, 0.61)
            ]
            int[] faceVertexCounts = [
                3, 3, 3, 3, 3, 3, 3, 3, 3, 3, 3, 3, 3, 3, 3, 3, 3, 3, 3, 3, 3, 3, 3, 3,
                3, 3, 3, 3, 3, 3, 3, 3, 3, 3, 3, 3, 3, 3, 3, 3, 3, 3, 3, 3, 3, 3, 3, 3,
                3, 3, 3, 3, 3, 3, 3, 3, 3, 3, 3, 3, 3, 3, 3, 3, 3, 3, 3, 3, 3, 3, 3, 3,
                3, 3, 3, 3, 3, 3, 3, 3, 3, 3, 3, 3, 3, 3, 3, 3, 3, 3, 3, 3, 3, 3, 3, 3,
                3, 3, 3, 3, 3, 3, 3, 3, 3, 3, 3, 3, 3, 3, 3, 3, 3, 3, 3, 3, 3, 3, 3, 3,
                3, 3, 3, 3, 3, 3, 3, 3, 3, 3, 3, 3, 3, 3, 3, 3, 3, 3, 3, 3, 3, 3, 3, 3,
                3, 3, 3, 3, 3, 3, 3, 3, 3, 3, 3, 3, 3, 3, 3, 3, 3, 3, 3, 3, 3, 3, 3, 3,
                3, 3, 3, 3, 3, 3, 3, 3, 3, 3, 3, 3, 3, 3, 3, 3, 3, 3, 3, 3, 3, 3, 3, 3,
                3, 3, 3, 3, 3, 3, 3, 3, 3, 3, 3, 3, 3, 3, 3, 3
            ]
            int[] faceVertexIndices = [
                0, 2, 1, 0, 3, 2, 0, 4, 3, 0, 5, 4, 0, 6, 5, 0, 7, 6,
                0, 8, 7, 0, 9, 8, 0, 10, 9, 0, 1, 10, 1, 2, 11, 2, 12, 11,
                2, 3, 12, 3, 13, 12, 3, 4, 13, 4, 14, 13, 4, 5, 14, 5, 15, 14,
                5, 6, 15, 6, 16, 15, 6, 7, 16, 7, 17, 16, 7, 8, 17, 8, 18, 17,
                8, 9, 18, 9, 19, 18, 9, 10, 19, 10, 20, 19, 10, 1, 20, 1, 11, 20,
                11, 12, 21, 12, 22, 21, 12, 13, 22, 13, 23, 22, 13, 14, 23, 14, 24, 23,
                14, 15, 24, 15, 25, 24, 15, 16, 25, 16, 26, 25, 16, 17, 26, 17, 27, 26,
                17, 18, 27, 18, 28, 27, 18, 19, 28, 19, 29, 28, 19, 20, 29, 20, 30, 29,
                20, 11, 30, 11, 21, 30, 21, 22, 31, 22, 32, 31, 22, 23, 32, 23, 33, 32,
                23, 24, 33, 24, 34, 33, 24, 25, 34, 25, 35, 34, 25, 26, 35, 26, 36, 35,
                26, 27, 36, 27, 37, 36, 27, 28, 37, 28, 38, 37, 28, 29, 38, 29, 39, 38,
                29, 30, 39, 30, 40, 39, 30, 21, 40, 21, 31, 40, 31, 32, 41, 32, 42, 41,
                32, 33, 42, 33, 43, 42, 33, 34, 43, 34, 44, 43, 34, 35, 44, 35, 45, 44,
                35, 36, 45, 36, 46, 45, 36, 37, 46, 37, 47, 46, 37, 38, 47, 38, 48, 47,
                38, 39, 48, 39, 49, 48, 39, 40, 49, 40, 50, 49, 40, 31, 50, 31, 41, 50,
                41, 42, 51, 42, 52, 51, 42, 43, 52, 43, 53, 52, 43, 44, 53, 44, 54, 53,
                44, 45, 54, 45, 55, 54, 45, 46, 55, 46, 56, 55, 46, 47, 56, 47, 57, 56,
                47, 48, 57, 48, 58, 57, 48, 49, 58, 49, 59, 58, 49, 50, 59, 50, 60, 59,
                50, 41, 60, 41, 51, 60, 51, 52, 61, 52, 62, 61, 52, 53, 62, 53, 63, 62,
                53, 54, 63, 54, 64, 63, 54, 55, 64, 55, 65, 64, 55, 56, 65, 56, 66, 65,
                56, 57, 66, 57, 67, 66, 57, 58, 67, 58, 68, 67, 58, 59, 68, 59, 69, 68,
                59, 60, 69, 60, 70, 69, 60, 51, 70, 51, 61, 70, 61, 62, 71, 62, 72, 71,
                62, 63, 72, 63, 73, 72, 63, 64, 73, 64, 74, 73, 64, 65, 74, 65, 75, 74,
                65, 66, 75, 66, 76, 75, 66, 67, 76, 67, 77, 76, 67, 68, 77, 68, 78, 77,
                68, 69, 78, 69, 79, 78, 69, 70, 79, 70, 80, 79, 70, 61, 80, 61, 71, 80,
                71, 72, 81, 72, 73, 81, 73, 74, 81, 74, 75, 81, 75, 76, 81, 76, 77, 81,
                77, 78, 81, 78, 79, 81, 79, 80, 81, 80, 71, 81, 82, 83, 84, 83, 85, 84,
                86, 87, 88, 87, 89, 88, 86, 88, 84, 88, 82, 84, 89, 87, 83, 87, 85, 83,
                88, 89, 82, 89, 83, 82, 84, 85, 86, 85, 87, 86, 90, 91, 92, 91, 93, 92,
                94, 95, 96, 95, 97, 96, 94, 96, 92, 96, 90, 92, 97, 95, 91, 95, 93, 91,
                96, 97, 90, 97, 91, 90, 92, 93, 94, 93, 95, 94, 98, 99, 100, 99, 101, 100,
                102, 103, 104, 103, 105, 104, 102, 104, 100, 104, 98, 100, 105, 103, 99, 103, 101, 99,
                104, 105, 98, 105, 99, 98, 100, 101, 102, 101, 103, 102, 106, 107, 108, 107, 109, 108,
                110, 111, 112, 111, 113, 112, 110, 112, 108, 112, 106, 108, 113, 111, 107, 111, 109, 107,
                112, 113, 106, 113, 107, 106, 108, 109, 110, 109, 111, 110
            ]
        }
    }
}
